STARTFONT 2.1
COMMENT
COMMENT Converted from OpenType font "Exo-Bold.otf" by "otf2bdf 3.0".
COMMENT
FONT -FreeType-Exo-Bold-R-Normal--33-240-100-100-P-162-ISO10646-1
SIZE 24 100 100
FONTBOUNDINGBOX 47 43 -2 -10
STARTPROPERTIES 19
FOUNDRY "FreeType"
FAMILY_NAME "Exo"
WEIGHT_NAME "Bold"
SLANT "R"
SETWIDTH_NAME "Normal"
ADD_STYLE_NAME ""
PIXEL_SIZE 33
POINT_SIZE 240
RESOLUTION_X 100
RESOLUTION_Y 100
SPACING "P"
AVERAGE_WIDTH 162
CHARSET_REGISTRY "ISO10646"
CHARSET_ENCODING "1"
FONT_ASCENT 33
FONT_DESCENT 9
COPYRIGHT "Copyright (c) 2011 Natanael Gama (exo@ndiscovered.com), with Reserved Font Name "Exo""
_OTF_FONTFILE "Exo-Bold.otf"
_OTF_PSNAME "Exo-Bold"
ENDPROPERTIES
CHARS 398
STARTCHAR 000D
ENCODING 13
SWIDTH 750 0
DWIDTH 25 0
BBX 0 0 0 0
BITMAP
ENDCHAR
STARTCHAR 0020
ENCODING 32
SWIDTH 240 0
DWIDTH 8 0
BBX 0 0 0 0
BITMAP
ENDCHAR
STARTCHAR 0021
ENCODING 33
SWIDTH 270 0
DWIDTH 9 0
BBX 5 24 2 0
BITMAP
F8
F8
F8
F8
F8
F8
F8
F8
F8
F8
F8
F8
F8
F0
F0
70
70
70
00
70
F8
F8
F8
F8
ENDCHAR
STARTCHAR 0022
ENCODING 34
SWIDTH 450 0
DWIDTH 15 0
BBX 11 7 2 17
BITMAP
FBE0
FBE0
FBE0
FBE0
F3C0
F3C0
F3C0
ENDCHAR
STARTCHAR 0023
ENCODING 35
SWIDTH 720 0
DWIDTH 24 0
BBX 22 24 1 0
BITMAP
01E1C0
01C1C0
01C3C0
01C380
01C380
01C380
03C380
7FFFFC
7FFFFC
7FFFFC
038700
078700
078700
070700
FFFFF8
FFFFF8
FFFFF8
0F0E00
0E0E00
0E1E00
0E1C00
0E1C00
1E1C00
1E1C00
ENDCHAR
STARTCHAR 0024
ENCODING 36
SWIDTH 570 0
DWIDTH 19 0
BBX 17 31 1 -3
BITMAP
01C000
01C000
01C000
0FF800
3FFF00
7FFF00
7FFF00
7E3F00
F80000
F80000
F80000
F80000
F80000
7FF000
7FFE00
7FFF00
3FFF00
0FFF00
001F80
000F80
000F80
000F80
000F80
703F00
7FFF00
7FFF00
7FFE00
1FF800
01C000
01C000
01C000
ENDCHAR
STARTCHAR 0025
ENCODING 37
SWIDTH 960 0
DWIDTH 32 0
BBX 30 24 1 0
BITMAP
3FC00F00
7FF00E00
FFF01E00
F0F01C00
E0703800
E0707800
E0707000
E070F000
F070E000
FFF1C000
7FF3C000
7FE38FF0
0007BFF8
000F3FFC
000E3C3C
001E381C
001C381C
0038381C
0078381C
0070381C
00F03C3C
00E03FFC
01C03FF8
03C00FF0
ENDCHAR
STARTCHAR 0026
ENCODING 38
SWIDTH 690 0
DWIDTH 23 0
BBX 21 24 1 0
BITMAP
0FFE00
1FFE00
1FFE00
3FFE00
3F0000
3E0000
1F0000
1F8000
0F8000
07C000
0FE000
1FF000
3FF060
7FF8E0
7CFFE0
F87FC0
F03FC0
F03F80
F83F80
FC7FC0
7FFFC0
7FFBE0
3FF3F0
1FC1F8
ENDCHAR
STARTCHAR 0027
ENCODING 39
SWIDTH 210 0
DWIDTH 7 0
BBX 5 7 1 17
BITMAP
F8
F8
F8
F8
78
78
78
ENDCHAR
STARTCHAR 0028
ENCODING 40
SWIDTH 390 0
DWIDTH 13 0
BBX 10 36 2 -7
BITMAP
03C0
0780
0F80
0F00
1F00
1E00
3E00
3E00
7C00
7C00
7C00
7800
F800
F800
F800
F800
F800
F800
F800
F800
F800
F800
F800
F800
F800
7800
7C00
7C00
7C00
3E00
3E00
1F00
1F00
0F80
0F80
07C0
ENDCHAR
STARTCHAR 0029
ENCODING 41
SWIDTH 390 0
DWIDTH 13 0
BBX 10 36 1 -7
BITMAP
F000
F800
7800
7C00
3C00
3E00
1E00
1F00
1F00
0F00
0F80
0F80
0F80
0780
0780
07C0
07C0
07C0
07C0
07C0
07C0
07C0
0780
0780
0F80
0F80
0F80
0F00
1F00
1F00
3E00
3E00
7C00
7C00
F800
F000
ENDCHAR
STARTCHAR 002A
ENCODING 42
SWIDTH 420 0
DWIDTH 14 0
BBX 12 10 1 14
BITMAP
0600
0700
0F20
FB70
F9E0
00C0
1D80
1B80
3BC0
30C0
ENDCHAR
STARTCHAR 002B
ENCODING 43
SWIDTH 480 0
DWIDTH 16 0
BBX 14 14 1 5
BITMAP
0780
0780
0780
0780
0780
FFFC
FFFC
FFFC
FFFC
0780
0780
0780
0780
0780
ENDCHAR
STARTCHAR 002C
ENCODING 44
SWIDTH 270 0
DWIDTH 9 0
BBX 5 8 2 -4
BITMAP
70
F8
F8
F8
F8
78
F0
F0
ENDCHAR
STARTCHAR 002D
ENCODING 45
SWIDTH 360 0
DWIDTH 12 0
BBX 10 4 1 8
BITMAP
FFC0
FFC0
FFC0
FFC0
ENDCHAR
STARTCHAR 002E
ENCODING 46
SWIDTH 270 0
DWIDTH 9 0
BBX 5 5 2 0
BITMAP
70
F8
F8
F8
F8
ENDCHAR
STARTCHAR 002F
ENCODING 47
SWIDTH 450 0
DWIDTH 15 0
BBX 14 28 1 -2
BITMAP
007C
00F8
00F8
00F8
01F0
01F0
01F0
03E0
03E0
03E0
07C0
07C0
07C0
0F80
0F80
0F80
1F00
1F00
1F00
3E00
3E00
3E00
7C00
7C00
7C00
F800
F800
F800
ENDCHAR
STARTCHAR 0030
ENCODING 48
SWIDTH 630 0
DWIDTH 21 0
BBX 17 24 2 0
BITMAP
1FFC00
3FFF00
7FFF00
FFFF80
FC1F80
F80F80
F00780
F00780
F00780
F00780
F00780
F00780
F00780
F00780
F00780
F00780
F00780
F00780
F80F80
FC1F80
FFFF80
7FFF00
7FFF00
1FFC00
ENDCHAR
STARTCHAR 0031
ENCODING 49
SWIDTH 360 0
DWIDTH 12 0
BBX 9 24 1 0
BITMAP
0F80
3F80
FF80
FF80
FF80
8780
0780
0780
0780
0780
0780
0780
0780
0780
0780
0780
0780
0780
0780
0780
0780
0780
0780
0780
ENDCHAR
STARTCHAR 0032
ENCODING 50
SWIDTH 600 0
DWIDTH 20 0
BBX 17 25 1 0
BITMAP
1FF800
FFFE00
FFFF00
FFFF00
003F80
000F80
000780
000780
000F80
000F80
000F80
001F00
003F00
007E00
00FC00
01FC00
03F800
07F000
1FE000
3FC000
7F0000
FFFF80
FFFF80
FFFF80
FFFF80
ENDCHAR
STARTCHAR 0033
ENCODING 51
SWIDTH 570 0
DWIDTH 19 0
BBX 17 24 1 0
BITMAP
3FF800
FFFE00
FFFF00
FFFF00
003F00
000F80
000F80
000F80
000F00
001F00
3FFF00
3FFE00
3FFE00
3FFF00
003F00
000F00
000F80
000F80
000F80
001F00
FFFF00
FFFF00
FFFE00
FFFC00
ENDCHAR
STARTCHAR 0034
ENCODING 52
SWIDTH 630 0
DWIDTH 21 0
BBX 19 24 1 0
BITMAP
00F800
01F800
01F000
03F000
03E000
07C000
07C780
0F8F80
0F8F80
1F0F80
1F0F80
3E0F80
3E0F80
7C0F80
FFFFE0
FFFFE0
FFFFE0
FFFFE0
000F80
000F80
000F80
000F80
000F80
000F80
ENDCHAR
STARTCHAR 0035
ENCODING 53
SWIDTH 600 0
DWIDTH 20 0
BBX 16 24 2 0
BITMAP
7FFF
7FFF
7FFF
7FFF
F800
F800
F800
F800
F800
FFF8
FFFE
FFFF
FFFF
F81F
F00F
000F
000F
000F
001F
FE3F
FFFF
FFFE
FFFE
3FF8
ENDCHAR
STARTCHAR 0036
ENCODING 54
SWIDTH 600 0
DWIDTH 20 0
BBX 17 25 2 0
BITMAP
0FF000
1FFF00
3FFF00
7FFF00
7FFF00
FC0000
F80000
F80000
F00000
F00000
F1FC00
FFFE00
FFFF00
FFFF80
F01F80
F00F80
F00F80
F80F80
F80F80
F80F80
7C1F80
7FFF80
7FFF00
3FFE00
1FFC00
ENDCHAR
STARTCHAR 0037
ENCODING 55
SWIDTH 540 0
DWIDTH 18 0
BBX 17 24 1 0
BITMAP
FFFF00
FFFF00
FFFF80
FFFF00
001F00
003E00
003E00
003E00
007C00
007C00
007C00
00F800
00F800
01F000
01F000
01F000
03E000
03E000
03E000
07C000
07C000
0F8000
0F8000
0F8000
ENDCHAR
STARTCHAR 0038
ENCODING 56
SWIDTH 630 0
DWIDTH 21 0
BBX 17 24 2 0
BITMAP
1FFC00
7FFF00
7FFF00
FFFF80
F81F80
F80F80
F80F80
F80F80
F80F80
F80F80
FFFF00
7FFE00
3FFF00
7FFF80
F80F80
F80F80
F80F80
F80F80
F80F80
F81F80
FFFF80
FFFF00
7FFF00
1FFC00
ENDCHAR
STARTCHAR 0039
ENCODING 57
SWIDTH 600 0
DWIDTH 20 0
BBX 17 24 2 -1
BITMAP
3FF800
7FFC00
FFFE00
FFFE00
F83F00
F01F00
F00F00
F00F00
F00F00
F00F80
F80F80
FFFF80
FFFF80
7FFF80
3FCF80
000F80
000F00
000F00
001F00
003F00
FFFE00
FFFE00
FFFC00
FFF800
ENDCHAR
STARTCHAR 003A
ENCODING 58
SWIDTH 270 0
DWIDTH 9 0
BBX 5 18 2 0
BITMAP
F8
F8
F8
F8
70
00
00
00
00
00
00
00
00
70
F8
F8
F8
F8
ENDCHAR
STARTCHAR 003B
ENCODING 59
SWIDTH 270 0
DWIDTH 9 0
BBX 5 21 2 -4
BITMAP
F8
F8
F8
F8
70
00
00
00
00
00
00
00
00
F0
F8
F8
F8
F8
78
F0
F0
ENDCHAR
STARTCHAR 003C
ENCODING 60
SWIDTH 450 0
DWIDTH 15 0
BBX 13 14 1 4
BITMAP
0008
0038
01F8
0FF8
3FF8
FFC0
FE00
FC00
FF00
FFE0
1FF8
07F8
00F8
0038
ENDCHAR
STARTCHAR 003D
ENCODING 61
SWIDTH 480 0
DWIDTH 16 0
BBX 14 11 1 6
BITMAP
FFFC
FFFC
FFFC
FFFC
0000
0000
0000
FFFC
FFFC
FFFC
FFFC
ENDCHAR
STARTCHAR 003E
ENCODING 62
SWIDTH 450 0
DWIDTH 15 0
BBX 13 14 1 4
BITMAP
8000
E000
FC00
FF80
FFE0
1FF8
03F8
01F8
07F8
3FF8
FFC0
FF00
F800
E000
ENDCHAR
STARTCHAR 003F
ENCODING 63
SWIDTH 540 0
DWIDTH 18 0
BBX 17 25 0 0
BITMAP
1F8000
FFFC00
FFFE00
FFFF00
7FFF80
001F80
000F80
000F80
000F80
000F80
000F80
001F80
03FF80
03FF00
03FE00
03F000
03C000
03C000
03C000
000000
038000
07C000
07C000
07C000
07C000
ENDCHAR
STARTCHAR 0040
ENCODING 64
SWIDTH 870 0
DWIDTH 29 0
BBX 25 31 2 -7
BITMAP
007FE000
0FFFFC00
0FFFFE00
0FFFFF00
00001F00
00000F00
00000780
1FFF0780
3FFFC780
7FFFC780
FFFFE780
F001E780
F001E780
E001E780
E0FFE780
E3FFE780
E3F9E780
E3C1E780
E3C1E780
E3C3E780
E3FFE780
E3FFE780
E1FDE780
E0F0E780
F0000780
F0000780
F8000F00
FFFFFF00
7FFFFE00
3FFFFC00
0FFFF800
ENDCHAR
STARTCHAR 0041
ENCODING 65
SWIDTH 690 0
DWIDTH 23 0
BBX 21 24 1 0
BITMAP
00FC00
00FC00
01FC00
01FE00
01FE00
03FE00
03FF00
03FF00
07CF00
07CF80
07CF80
0F8780
0F87C0
0F87C0
1F03C0
1FFFE0
1FFFE0
3FFFE0
3FFFF0
3E01F0
7C01F0
7C00F8
7C00F8
F800F8
ENDCHAR
STARTCHAR 0042
ENCODING 66
SWIDTH 600 0
DWIDTH 20 0
BBX 17 24 2 0
BITMAP
FFF800
FFFE00
FFFF00
FFFF00
F81F80
F80F80
F80F80
F80F80
F80F80
FFFF00
FFFE00
FFFE00
FFFF00
F80F80
F80F80
F80780
F80780
F80780
F80F80
F81F80
FFFF80
FFFF00
FFFE00
FFFC00
ENDCHAR
STARTCHAR 0043
ENCODING 67
SWIDTH 570 0
DWIDTH 19 0
BBX 17 25 1 0
BITMAP
07FE00
0FFF80
1FFF80
3FFF80
7F0780
7C0000
7C0000
780000
780000
F80000
F80000
F80000
F80000
F80000
F80000
F80000
780000
7C0000
7C0000
7E0000
3F8180
3FFF80
1FFF80
0FFF80
03FF00
ENDCHAR
STARTCHAR 0044
ENCODING 68
SWIDTH 660 0
DWIDTH 22 0
BBX 19 24 2 0
BITMAP
FFF800
FFFE00
FFFF00
FFFF80
F80FC0
F807C0
F807C0
F803C0
F803E0
F803E0
F803E0
F803E0
F803E0
F803E0
F803E0
F803E0
F803C0
F807C0
F807C0
F81FC0
FFFF80
FFFF00
FFFE00
FFF800
ENDCHAR
STARTCHAR 0045
ENCODING 69
SWIDTH 570 0
DWIDTH 19 0
BBX 16 24 2 0
BITMAP
3FFF
7FFF
FFFF
FFFF
FC00
F800
F800
F800
F800
F800
FFFC
FFFC
FFFC
FFFC
F800
F800
F800
F800
F800
FC00
FFFF
FFFF
7FFF
3FFF
ENDCHAR
STARTCHAR 0046
ENCODING 70
SWIDTH 570 0
DWIDTH 19 0
BBX 16 24 2 0
BITMAP
1FFF
7FFF
FFFF
FFFF
FC00
F800
F800
F800
F800
F800
FFFC
FFFC
FFFC
FFFC
F800
F800
F800
F800
F800
F800
F800
F800
F800
F800
ENDCHAR
STARTCHAR 0047
ENCODING 71
SWIDTH 600 0
DWIDTH 20 0
BBX 18 25 1 0
BITMAP
07FE00
1FFFC0
1FFFC0
3FFFC0
7F01C0
7C0000
7C0000
780000
780000
F80000
F80000
F80FC0
F83FC0
F83FC0
F83FC0
F807C0
7807C0
7807C0
7C07C0
7C07C0
7F3FC0
3FFFC0
3FFFC0
1FFBC0
07E3C0
ENDCHAR
STARTCHAR 0048
ENCODING 72
SWIDTH 630 0
DWIDTH 21 0
BBX 18 24 2 0
BITMAP
F807C0
F807C0
F807C0
F807C0
F807C0
F807C0
F807C0
F807C0
F807C0
F807C0
FFFFC0
FFFFC0
FFFFC0
FFFFC0
F807C0
F807C0
F807C0
F807C0
F807C0
F807C0
F807C0
F807C0
F807C0
F807C0
ENDCHAR
STARTCHAR 0049
ENCODING 73
SWIDTH 240 0
DWIDTH 8 0
BBX 5 24 2 0
BITMAP
F8
F8
F8
F8
F8
F8
F8
F8
F8
F8
F8
F8
F8
F8
F8
F8
F8
F8
F8
F8
F8
F8
F8
F8
ENDCHAR
STARTCHAR 004A
ENCODING 74
SWIDTH 360 0
DWIDTH 12 0
BBX 9 25 1 -1
BITMAP
0780
0780
0780
0780
0780
0780
0780
0780
0780
0780
0780
0780
0780
0780
0780
0780
0780
0780
0780
0F80
FF80
FF80
FF80
FF00
1C00
ENDCHAR
STARTCHAR 004B
ENCODING 75
SWIDTH 630 0
DWIDTH 21 0
BBX 18 24 2 0
BITMAP
F00FC0
F00F80
F01F80
F03F00
F03E00
F07E00
F07C00
F0F800
F1F800
F1F000
FFF000
FFE000
FFE000
FFF000
F9F000
F9F800
F8F800
F87C00
F87E00
F83E00
F83F00
F81F80
F80F80
F80FC0
ENDCHAR
STARTCHAR 004C
ENCODING 76
SWIDTH 540 0
DWIDTH 18 0
BBX 15 24 2 0
BITMAP
F800
F800
F800
F800
F800
F800
F800
F800
F800
F800
F800
F800
F800
F800
F800
F800
F800
F800
F800
F800
FFFE
FFFE
7FFE
3FFE
ENDCHAR
STARTCHAR 004D
ENCODING 77
SWIDTH 840 0
DWIDTH 28 0
BBX 26 24 1 0
BITMAP
3F807F00
3F807F00
3FC07F00
3FC0FF00
3FC0FF00
3FC0FF00
3FE0FF00
3FE1FF00
3DE1FF00
3DE1EF80
3DF1EF80
3DF3EF80
7CF3EF80
7CF3CF80
7CFBCF80
7CFFCF80
7C7FCF80
7C7F8780
787F8780
787F8780
783F87C0
783F07C0
783F07C0
F83F07C0
ENDCHAR
STARTCHAR 004E
ENCODING 78
SWIDTH 690 0
DWIDTH 23 0
BBX 19 24 2 0
BITMAP
F803E0
FC03E0
FC03E0
FE03E0
FF03E0
FF03E0
FF83E0
FF83E0
FFC3E0
FFE3E0
FBE3E0
FBF3E0
F9FBE0
F8FBE0
F8FFE0
F87FE0
F83FE0
F83FE0
F81FE0
F80FE0
F80FE0
F807E0
F807E0
F803E0
ENDCHAR
STARTCHAR 004F
ENCODING 79
SWIDTH 660 0
DWIDTH 22 0
BBX 19 24 2 0
BITMAP
07FC00
1FFF00
3FFF80
7FFFC0
7E0FC0
FC07C0
F803E0
F803E0
F003E0
F003E0
F001E0
F001E0
F001E0
F001E0
F001E0
F003E0
F803E0
F803E0
F807E0
7F1FC0
7FFFC0
3FFF80
1FFF00
07FC00
ENDCHAR
STARTCHAR 0050
ENCODING 80
SWIDTH 600 0
DWIDTH 20 0
BBX 17 24 2 0
BITMAP
FFF800
FFFE00
FFFF00
FFFF00
F01F80
F00F80
F00F80
F00F80
F00F80
F00F80
F01F80
FFFF00
FFFF00
FFFE00
FFFC00
F00000
F00000
F00000
F00000
F00000
F00000
F00000
F00000
F00000
ENDCHAR
STARTCHAR 0051
ENCODING 81
SWIDTH 660 0
DWIDTH 22 0
BBX 19 30 2 -7
BITMAP
07FC00
1FFF00
3FFF80
7FFFC0
7E0FC0
FC07C0
F803E0
F803E0
F003E0
F003E0
F001E0
F001E0
F001E0
F001E0
F001E0
F003E0
F803E0
F803E0
F807E0
7E1FC0
7FFFC0
3FFF80
1FFF00
07FC00
000000
00E000
00FF00
007F00
003F00
001F00
ENDCHAR
STARTCHAR 0052
ENCODING 82
SWIDTH 600 0
DWIDTH 20 0
BBX 18 24 2 0
BITMAP
FFF800
FFFE00
FFFF00
FFFF00
F01F80
F00F80
F00F80
F00F80
F00F80
F00F80
F00F80
FFFF00
FFFF00
FFFE00
FFFC00
F07C00
F07C00
F03E00
F03E00
F03F00
F01F00
F01F80
F00F80
F00FC0
ENDCHAR
STARTCHAR 0053
ENCODING 83
SWIDTH 600 0
DWIDTH 20 0
BBX 17 24 2 0
BITMAP
1FF800
7FFF00
7FFF00
FFFF00
FC0F00
F00000
F00000
F00000
F00000
F80000
FFF800
FFFE00
7FFF00
3FFF00
0FFF00
000F80
000F80
000F80
000F80
001F00
FFFF00
FFFF00
FFFE00
7FFC00
ENDCHAR
STARTCHAR 0054
ENCODING 84
SWIDTH 600 0
DWIDTH 20 0
BBX 18 24 1 0
BITMAP
FFFFC0
FFFFC0
FFFFC0
FFFFC0
01E000
01E000
01E000
01E000
01E000
01E000
01E000
01E000
01E000
01E000
01E000
01E000
01E000
01E000
01E000
01E000
01E000
01E000
01E000
01E000
ENDCHAR
STARTCHAR 0055
ENCODING 85
SWIDTH 660 0
DWIDTH 22 0
BBX 19 24 2 0
BITMAP
F803E0
F803E0
F803E0
F803E0
F803E0
F803E0
F803E0
F803E0
F803E0
F803E0
F803E0
F803E0
F803E0
F803E0
F803E0
F803E0
F803C0
F807C0
FC07C0
7E1FC0
7FFF80
3FFF80
1FFF00
0FFC00
ENDCHAR
STARTCHAR 0056
ENCODING 86
SWIDTH 690 0
DWIDTH 23 0
BBX 21 24 1 0
BITMAP
F800F8
7C00F8
7C01F0
7C01F0
3C01F0
3E03E0
3E03E0
1E03E0
1F03C0
1F07C0
1F07C0
0F8780
0F8F80
0F8F80
078F00
07DF00
07DF00
03DE00
03FE00
03FE00
01FC00
01FC00
01FC00
00F800
ENDCHAR
STARTCHAR 0057
ENCODING 87
SWIDTH 990 0
DWIDTH 33 0
BBX 31 24 1 0
BITMAP
F801F03E
7C01E03E
7C03E03E
7C03E03C
3C03E07C
3E03C07C
3E07C07C
1E07E078
1F07E0F8
1F07E0F8
1F0FF0F8
0F8FF0F0
0F8FF1F0
0F8FF9F0
079FF9E0
07DFF9E0
07DE7FE0
03DE7FE0
03FE7FC0
03FC3FC0
01FC3FC0
01FC1F80
01FC1F80
00F81F80
ENDCHAR
STARTCHAR 0058
ENCODING 88
SWIDTH 630 0
DWIDTH 21 0
BBX 19 24 1 0
BITMAP
FC03E0
7C03E0
3E07C0
3E07C0
1F0F80
1F1F00
0F9F00
07FE00
07FE00
03FC00
03F800
01F800
01F800
03F800
03FC00
07FE00
07FE00
0F9F00
1F1F00
1F0F80
3E0FC0
3E07C0
7C03E0
7C03E0
ENDCHAR
STARTCHAR 0059
ENCODING 89
SWIDTH 660 0
DWIDTH 22 0
BBX 20 24 1 0
BITMAP
F801F0
7C03F0
7C03E0
3E03E0
3E07C0
1E07C0
1F0F80
1F0F80
0F9F00
0F9F00
07FE00
07FE00
03FC00
03FC00
01F800
01F800
00F000
00F000
00F000
00F000
00F000
00F000
00F000
00F000
ENDCHAR
STARTCHAR 005A
ENCODING 90
SWIDTH 570 0
DWIDTH 19 0
BBX 17 24 1 0
BITMAP
FFFF80
FFFF80
FFFF80
FFFF80
001F80
003F00
007E00
007C00
00FC00
01F800
01F000
03F000
07E000
0FC000
0FC000
1F8000
3F0000
7F0000
7E0000
FC0000
FFFF80
FFFF80
FFFF80
FFFF80
ENDCHAR
STARTCHAR 005B
ENCODING 91
SWIDTH 330 0
DWIDTH 11 0
BBX 9 35 2 -7
BITMAP
1F80
3F80
7F80
7F80
FC00
F800
F800
F800
F800
F800
F800
F800
F800
F800
F800
F800
F800
F800
F800
F800
F800
F800
F800
F800
F800
F800
F800
F800
F800
F800
FC00
7F80
7F80
3F80
1F80
ENDCHAR
STARTCHAR 005C
ENCODING 92
SWIDTH 450 0
DWIDTH 15 0
BBX 13 28 1 -2
BITMAP
F000
F800
F800
7800
7C00
7C00
3C00
3E00
3E00
1E00
1F00
1F00
0F00
0F80
0F80
0780
07C0
07C0
03C0
03E0
03E0
01E0
01F0
01F0
00F0
00F8
00F8
0078
ENDCHAR
STARTCHAR 005D
ENCODING 93
SWIDTH 330 0
DWIDTH 11 0
BBX 9 35 0 -7
BITMAP
FC00
FE00
FF00
FF80
0F80
0F80
0F80
0F80
0F80
0F80
0F80
0F80
0F80
0F80
0F80
0F80
0F80
0F80
0F80
0F80
0F80
0F80
0F80
0F80
0F80
0F80
0F80
0F80
0F80
0F80
0F80
FF80
FF00
FE00
FC00
ENDCHAR
STARTCHAR 005E
ENCODING 94
SWIDTH 390 0
DWIDTH 13 0
BBX 10 5 1 17
BITMAP
1F00
1F00
3F80
73C0
E1C0
ENDCHAR
STARTCHAR 005F
ENCODING 95
SWIDTH 660 0
DWIDTH 22 0
BBX 21 4 1 0
BITMAP
FFFFF8
FFFFF8
FFFFF8
FFFFF8
ENDCHAR
STARTCHAR 0060
ENCODING 96
SWIDTH 240 0
DWIDTH 8 0
BBX 7 5 1 17
BITMAP
F0
78
38
1C
1E
ENDCHAR
STARTCHAR 0061
ENCODING 97
SWIDTH 510 0
DWIDTH 17 0
BBX 15 18 1 0
BITMAP
1FF0
7FFC
7FFC
7FFE
003E
003E
003E
3FFE
7FFE
FFFE
F83E
F83E
F83E
F87E
FFFE
FFFE
7FDE
1F1E
ENDCHAR
STARTCHAR 0062
ENCODING 98
SWIDTH 570 0
DWIDTH 19 0
BBX 15 26 2 0
BITMAP
F000
F000
F000
F000
F000
F000
F000
F000
F3F0
FFFC
FFFC
FFFE
F03E
F03E
F03E
F01E
F01E
F01E
F01E
F03E
F03E
F83E
FFFE
FFFC
F7F8
F1F0
ENDCHAR
STARTCHAR 0063
ENCODING 99
SWIDTH 480 0
DWIDTH 16 0
BBX 14 18 1 0
BITMAP
1FF0
3FFC
7FFC
7FFC
7C00
F800
F800
F800
F800
F800
F800
F800
7800
7C00
7FFC
7FFC
3FFC
0FF8
ENDCHAR
STARTCHAR 0064
ENCODING 100
SWIDTH 570 0
DWIDTH 19 0
BBX 16 26 1 0
BITMAP
001F
001F
001F
001F
001F
001F
001F
001F
1F9F
3FFF
7FFF
7FFF
7C1F
F81F
F81F
F81F
F81F
F81F
F81F
F81F
F81F
7C3F
7FFF
7FFF
3FEF
1F8F
ENDCHAR
STARTCHAR 0065
ENCODING 101
SWIDTH 540 0
DWIDTH 18 0
BBX 15 18 1 0
BITMAP
0FF8
3FFC
7FFE
7FFE
781E
F81E
F81E
F83E
FFFE
FFFE
FFF8
F800
F800
7C00
7FFE
7FFE
3FFE
1FFC
ENDCHAR
STARTCHAR 0066
ENCODING 102
SWIDTH 390 0
DWIDTH 13 0
BBX 13 27 0 0
BITMAP
0080
07F8
0FF8
0FF8
1F00
1F00
1F00
1F00
1F00
3FF0
FFF0
FFF0
FFF0
1F00
1F00
1F00
1F00
1F00
1F00
1F00
1F00
1F00
1F00
1F00
1F00
1F00
1F00
ENDCHAR
STARTCHAR 0067
ENCODING 103
SWIDTH 570 0
DWIDTH 19 0
BBX 17 27 1 -9
BITMAP
1FFF80
3FFF80
7FFF80
7FFE00
F81F00
F81F00
F81F00
F81F00
7C3F00
7FFE00
7FFE00
3FFC00
7FF000
F00000
FFF800
FFFE00
7FFF00
3FFF00
781F00
F80F00
F80F00
F80F00
F80F00
7FFF00
7FFF00
3FFE00
1FFC00
ENDCHAR
STARTCHAR 0068
ENCODING 104
SWIDTH 540 0
DWIDTH 18 0
BBX 15 26 2 0
BITMAP
F000
F000
F000
F000
F000
F000
F000
F000
F1F0
F7FC
FFFC
FFFE
F83E
F03E
F03E
F03E
F03E
F03E
F03E
F03E
F03E
F03E
F03E
F03E
F03E
F03E
ENDCHAR
STARTCHAR 0069
ENCODING 105
SWIDTH 240 0
DWIDTH 8 0
BBX 5 25 1 0
BITMAP
78
F8
F8
F8
F8
00
00
F8
F8
F8
F8
F8
F8
F8
F8
F8
F8
F8
F8
F8
F8
F8
F8
F8
F8
ENDCHAR
STARTCHAR 006A
ENCODING 106
SWIDTH 240 0
DWIDTH 8 0
BBX 5 34 2 -9
BITMAP
F0
F8
F8
F8
F8
00
00
F0
F0
F0
F0
F0
F0
F0
F0
F0
F0
F0
F0
F0
F0
F0
F0
F0
F0
F0
F0
F0
F0
F0
F0
F0
F0
E0
ENDCHAR
STARTCHAR 006B
ENCODING 107
SWIDTH 570 0
DWIDTH 19 0
BBX 16 26 2 0
BITMAP
F000
F000
F000
F000
F000
F000
F000
F000
F03F
F07E
F0FC
F1F8
F3F0
F3E0
FFE0
FFC0
FFC0
FFE0
F3E0
F3F0
F1F8
F0F8
F0FC
F07C
F03E
F03F
ENDCHAR
STARTCHAR 006C
ENCODING 108
SWIDTH 300 0
DWIDTH 10 0
BBX 8 26 2 0
BITMAP
F0
F0
F0
F0
F0
F0
F0
F0
F0
F0
F0
F0
F0
F0
F0
F0
F0
F0
F0
F0
F0
F8
FC
FF
7F
3F
ENDCHAR
STARTCHAR 006D
ENCODING 109
SWIDTH 870 0
DWIDTH 29 0
BBX 26 18 2 0
BITMAP
E1F03E00
F7FDFF80
FFFFFF80
FFFFFFC0
F83F07C0
F03E07C0
F03E07C0
F03E07C0
F03E07C0
F03E07C0
F03E07C0
F03E07C0
F03E07C0
F03E07C0
F03E07C0
F03E07C0
F03E07C0
F03E07C0
ENDCHAR
STARTCHAR 006E
ENCODING 110
SWIDTH 540 0
DWIDTH 18 0
BBX 15 18 2 0
BITMAP
E1F0
F7FC
FFFC
FFFE
F83E
F03E
F03E
F03E
F03E
F03E
F03E
F03E
F03E
F03E
F03E
F03E
F03E
F03E
ENDCHAR
STARTCHAR 006F
ENCODING 111
SWIDTH 570 0
DWIDTH 19 0
BBX 16 18 1 0
BITMAP
0FF0
3FFC
3FFE
7FFF
7C1F
781F
F80F
F80F
F80F
F80F
F80F
F80F
F81F
7C1F
7FFF
3FFE
3FFC
0FF0
ENDCHAR
STARTCHAR 0070
ENCODING 112
SWIDTH 570 0
DWIDTH 19 0
BBX 15 27 2 -9
BITMAP
F1F0
F7F8
FFFC
FFFC
F83E
F03E
F03E
F01E
F01E
F01E
F01E
F03E
F03E
F03E
FFFE
FFFC
FFF8
F3F0
F000
F000
F000
F000
F000
F000
F000
F000
F000
ENDCHAR
STARTCHAR 0071
ENCODING 113
SWIDTH 570 0
DWIDTH 19 0
BBX 16 27 1 -9
BITMAP
0FF8
3FFF
3FFF
7FFF
7C1F
781F
F81F
F81F
F81F
F81F
F81F
F81F
F81F
7C1F
7FFF
3FFF
3FFF
0FDF
001F
001F
001F
001F
001F
001F
001F
001F
001F
ENDCHAR
STARTCHAR 0072
ENCODING 114
SWIDTH 420 0
DWIDTH 14 0
BBX 11 18 2 0
BITMAP
F1E0
F7E0
FFE0
FFE0
FFE0
F800
F000
F000
F000
F000
F000
F000
F000
F000
F000
F000
F000
F000
ENDCHAR
STARTCHAR 0073
ENCODING 115
SWIDTH 510 0
DWIDTH 17 0
BBX 15 18 1 0
BITMAP
3FF8
7FFC
FFFC
FFFC
F800
F800
F800
FFF8
FFFC
7FFE
3FFE
003E
003E
003E
7FFE
7FFE
7FFC
3FF8
ENDCHAR
STARTCHAR 0074
ENCODING 116
SWIDTH 390 0
DWIDTH 13 0
BBX 12 23 0 0
BITMAP
0F00
0F00
0F00
0F00
1F00
3FF0
FFF0
FFF0
FFF0
1F00
1F00
1F00
1F00
1F00
1F00
1F00
1F00
1F00
1F00
0FC0
0FF0
0FF0
03F0
ENDCHAR
STARTCHAR 0075
ENCODING 117
SWIDTH 540 0
DWIDTH 18 0
BBX 16 18 1 0
BITMAP
F81F
F81F
F81F
F81F
F81F
F81F
F81F
F81F
F81F
F81F
F81F
F81F
F81F
F83F
7FFF
7FFF
3FDF
1F0F
ENDCHAR
STARTCHAR 0076
ENCODING 118
SWIDTH 570 0
DWIDTH 19 0
BBX 17 18 1 0
BITMAP
F80F80
F80F80
F80F00
7C1F00
7C1F00
7C1E00
3E3E00
3E3E00
3E3C00
1E7C00
1F7C00
1F7800
0FF800
0FF000
0FF000
07F000
07E000
07E000
ENDCHAR
STARTCHAR 0077
ENCODING 119
SWIDTH 840 0
DWIDTH 28 0
BBX 26 18 1 0
BITMAP
F81F07C0
F81E07C0
F81E0F80
783E0F80
7C3E0F80
7C3E1F00
3C3E1F00
3E7F1F00
3E7F1E00
3E7F3E00
1E7FBE00
1FFFBC00
1FF7FC00
0FF7FC00
0FF3F800
0FE3F800
07E3F800
07E1F000
ENDCHAR
STARTCHAR 0078
ENCODING 120
SWIDTH 570 0
DWIDTH 19 0
BBX 17 18 1 0
BITMAP
FC0F80
7C1F00
7E3F00
3E3E00
1F7C00
1FFC00
0FF800
07F000
07F000
07F000
07F000
0FF800
1FFC00
1F7C00
3E3E00
7E3F00
7C1F00
FC1F80
ENDCHAR
STARTCHAR 0079
ENCODING 121
SWIDTH 570 0
DWIDTH 19 0
BBX 18 27 1 -9
BITMAP
F807C0
F80F80
F80F80
F80F80
7C0F00
7C1F00
7C1F00
7C1F00
3E1E00
3E3E00
3E3E00
1E3E00
1F3C00
1F7C00
1FFC00
0FFC00
07F800
01F800
00F800
00F800
01F000
01F000
01F000
01E000
03E000
03C000
038000
ENDCHAR
STARTCHAR 007A
ENCODING 122
SWIDTH 480 0
DWIDTH 16 0
BBX 14 18 1 0
BITMAP
FFFC
FFFC
FFFC
FFFC
00FC
01F8
03F0
07E0
07E0
0FC0
1F80
3F00
3F00
7E00
FFFC
FFFC
FFFC
FFFC
ENDCHAR
STARTCHAR 007B
ENCODING 123
SWIDTH 330 0
DWIDTH 11 0
BBX 10 35 0 -7
BITMAP
01C0
07C0
0FC0
1FC0
1F00
1F00
1F00
1F00
1F00
1F00
1F00
1F00
1F00
1F00
1F00
FE00
FC00
FC00
FE00
1F00
1F00
1F00
1F00
1F00
1F00
1F00
1F00
1F00
1F00
1F00
1F00
1FC0
0FC0
07C0
03C0
ENDCHAR
STARTCHAR 007C
ENCODING 124
SWIDTH 240 0
DWIDTH 8 0
BBX 4 28 2 -2
BITMAP
F0
F0
F0
F0
F0
F0
F0
F0
F0
F0
F0
F0
F0
F0
F0
F0
F0
F0
F0
F0
F0
F0
F0
F0
F0
F0
F0
F0
ENDCHAR
STARTCHAR 007D
ENCODING 125
SWIDTH 330 0
DWIDTH 11 0
BBX 10 35 0 -7
BITMAP
F000
FC00
FE00
FE00
3F00
1F00
1F00
1F00
1F00
1F00
1F00
1F00
1F00
1F00
1F00
0FC0
07C0
07C0
0FC0
1F00
1F00
1F00
1F00
1F00
1F00
1F00
1F00
1F00
1F00
1F00
3F00
FE00
FE00
FC00
F000
ENDCHAR
STARTCHAR 007E
ENCODING 126
SWIDTH 420 0
DWIDTH 14 0
BBX 12 4 1 18
BITMAP
3C20
7FF0
FFE0
43C0
ENDCHAR
STARTCHAR 00A1
ENCODING 161
SWIDTH 270 0
DWIDTH 9 0
BBX 5 25 2 -9
BITMAP
70
F8
F8
F8
F8
00
00
70
70
78
78
78
F8
F8
F8
F8
F8
F8
F8
F8
F8
F8
F8
F8
F8
ENDCHAR
STARTCHAR 00A2
ENCODING 162
SWIDTH 480 0
DWIDTH 16 0
BBX 14 24 1 -3
BITMAP
0380
0380
0380
1FF0
3FFC
7FFC
7FFC
F800
F800
F800
F800
F800
F800
F800
F800
F800
F800
7FFC
7FFC
3FFC
1FF8
0380
0380
0380
ENDCHAR
STARTCHAR 00A3
ENCODING 163
SWIDTH 570 0
DWIDTH 19 0
BBX 17 24 1 0
BITMAP
01FF80
07FF80
0FFF80
1FFF80
1F8000
1E0000
1E0000
3E0000
3E0000
3E0000
3E0000
7FFE00
FFFE00
FFFE00
3E0000
3E0000
3E0000
3E0000
3E0000
3E0000
FFFF80
FFFF80
FFFF80
FFFF80
ENDCHAR
STARTCHAR 00A4
ENCODING 164
SWIDTH 450 0
DWIDTH 15 0
BBX 12 12 1 4
BITMAP
6630
FFF0
7FE0
38E0
7070
7070
7070
70E0
3FE0
7FF0
6FF0
0020
ENDCHAR
STARTCHAR 00A5
ENCODING 165
SWIDTH 630 0
DWIDTH 21 0
BBX 19 24 1 0
BITMAP
F803E0
F803E0
7C07C0
7C07C0
3E0F80
3E0F80
1E1F00
1F1F00
0F3E00
0FBE00
07FC00
07FC00
03F800
3FFF00
3FFF00
3FFF00
01F000
3FFF00
3FFF00
3FFF00
01F000
01F000
01F000
01F000
ENDCHAR
STARTCHAR 00A6
ENCODING 166
SWIDTH 240 0
DWIDTH 8 0
BBX 4 28 2 -2
BITMAP
F0
F0
F0
F0
F0
F0
F0
F0
F0
F0
F0
F0
00
00
00
00
00
F0
F0
F0
F0
F0
F0
F0
F0
F0
F0
F0
ENDCHAR
STARTCHAR 00A7
ENCODING 167
SWIDTH 540 0
DWIDTH 18 0
BBX 16 26 1 0
BITMAP
1FF8
7FFC
7FFC
FFFC
F800
F800
F800
FFF8
7FFE
3FFE
7FFF
781F
F81F
F81F
F81E
FFFE
7FFC
7FFE
3FFF
001F
001F
001F
3FFF
3FFE
3FFE
3FF8
ENDCHAR
STARTCHAR 00A8
ENCODING 168
SWIDTH 450 0
DWIDTH 15 0
BBX 13 4 1 17
BITMAP
6070
F078
F078
6070
ENDCHAR
STARTCHAR 00A9
ENCODING 169
SWIDTH 810 0
DWIDTH 27 0
BBX 24 24 1 0
BITMAP
03FFE0
0FFFF8
1FFFFC
3C001E
38000E
787F0F
70FF87
71FF87
71C007
F1C007
E3C007
E38007
E38007
E3C007
71C007
71C007
71FFC7
70FFCF
787F0E
38001E
3E003C
1FFFFC
0FFFF8
03FFE0
ENDCHAR
STARTCHAR 00AA
ENCODING 170
SWIDTH 360 0
DWIDTH 12 0
BBX 10 16 1 9
BITMAP
3F00
FFC0
FFC0
01C0
01C0
7FC0
FFC0
F1C0
E1C0
E3C0
FFC0
FDC0
38C0
0000
FFC0
FFC0
ENDCHAR
STARTCHAR 00AB
ENCODING 171
SWIDTH 570 0
DWIDTH 19 0
BBX 16 13 2 6
BITMAP
060E
0F1F
1F3E
3E7C
7CF8
F9F0
F9F0
7CF8
3E7C
1F3E
0F9F
070E
0204
ENDCHAR
STARTCHAR 00AC
ENCODING 172
SWIDTH 480 0
DWIDTH 16 0
BBX 14 6 1 6
BITMAP
FFFC
FFFC
FFFC
FFFC
001C
001C
ENDCHAR
STARTCHAR 00AD
ENCODING 173
SWIDTH 360 0
DWIDTH 12 0
BBX 10 4 1 8
BITMAP
FFC0
FFC0
FFC0
FFC0
ENDCHAR
STARTCHAR 00AE
ENCODING 174
SWIDTH 810 0
DWIDTH 27 0
BBX 24 24 1 0
BITMAP
03FFE0
0FFFF8
1FFFFC
3C001E
38000E
71FF0F
71FF87
71FF87
71C1C7
F1C1C7
E1C1C7
E1FF87
E1FF87
E1DF07
F1CF07
71C707
71C787
71C387
79C1CE
38000E
3E001C
1FFFFC
0FFFF8
03FFE0
ENDCHAR
STARTCHAR 00AF
ENCODING 175
SWIDTH 360 0
DWIDTH 12 0
BBX 10 3 1 18
BITMAP
FFC0
FFC0
FFC0
ENDCHAR
STARTCHAR 00B0
ENCODING 176
SWIDTH 270 0
DWIDTH 9 0
BBX 7 7 1 17
BITMAP
38
7C
E6
C6
E6
7C
38
ENDCHAR
STARTCHAR 00B1
ENCODING 177
SWIDTH 510 0
DWIDTH 17 0
BBX 14 20 1 2
BITMAP
0780
0780
0780
0780
0780
FFFC
FFFC
FFFC
FFFC
0780
0780
0780
0780
0780
0000
0000
FFFC
FFFC
FFFC
FFFC
ENDCHAR
STARTCHAR 00B2
ENCODING 178
SWIDTH 390 0
DWIDTH 13 0
BBX 11 16 1 13
BITMAP
1F80
FFC0
FFE0
E3E0
01E0
00E0
01E0
01E0
03C0
0780
1F00
3E00
7C00
FFE0
FFE0
FFE0
ENDCHAR
STARTCHAR 00B3
ENCODING 179
SWIDTH 420 0
DWIDTH 14 0
BBX 11 16 1 13
BITMAP
3F80
FFC0
FFE0
C3E0
00E0
00E0
03E0
7FC0
7F80
7FE0
01E0
01E0
01E0
FFE0
FFE0
FFC0
ENDCHAR
STARTCHAR 00B4
ENCODING 180
SWIDTH 240 0
DWIDTH 8 0
BBX 6 5 1 17
BITMAP
3C
38
70
F0
E0
ENDCHAR
STARTCHAR 00B5
ENCODING 181
SWIDTH 600 0
DWIDTH 20 0
BBX 16 27 2 -9
BITMAP
F81F
F81F
F81F
F81F
F81F
F81F
F81F
F81F
F81F
F81F
F81F
F81F
F81F
F83F
FFFF
FFFF
FFFF
FF8F
F800
F800
F800
F800
F800
F800
F800
F800
F800
ENDCHAR
STARTCHAR 00B6
ENCODING 182
SWIDTH 570 0
DWIDTH 19 0
BBX 18 33 1 -9
BITMAP
1FFFC0
7FFFC0
FFFFC0
F9C700
E1C700
E1C700
E1C700
E1C700
F1C700
FFC700
7FC700
3FC700
01C700
01C700
01C700
01C700
01C700
01C700
01C700
01C700
01C700
01C700
01C700
01C700
01C000
01C000
01C000
01C000
01C000
01C000
01C000
01C000
01C000
ENDCHAR
STARTCHAR 00B7
ENCODING 183
SWIDTH 270 0
DWIDTH 9 0
BBX 5 5 2 10
BITMAP
F8
F8
F8
F8
70
ENDCHAR
STARTCHAR 00B8
ENCODING 184
SWIDTH 240 0
DWIDTH 8 0
BBX 6 5 1 -6
BITMAP
1C
1C
3C
F8
F0
ENDCHAR
STARTCHAR 00B9
ENCODING 185
SWIDTH 270 0
DWIDTH 9 0
BBX 7 16 0 13
BITMAP
1E
3E
FE
FE
0E
0E
0E
0E
0E
0E
0E
0E
0E
0E
0E
0E
ENDCHAR
STARTCHAR 00BA
ENCODING 186
SWIDTH 390 0
DWIDTH 13 0
BBX 11 15 1 9
BITMAP
3F80
7FC0
FFE0
F1E0
E0E0
E0E0
E0E0
E0E0
F1E0
FFE0
7FC0
3F80
0000
FFE0
FFE0
ENDCHAR
STARTCHAR 00BB
ENCODING 187
SWIDTH 570 0
DWIDTH 19 0
BBX 17 13 1 6
BITMAP
306000
78F000
7CF800
3E7C00
1F3E00
0F9F00
0F8F80
1F1F00
3E3E00
7C7C00
F8F800
70F000
206000
ENDCHAR
STARTCHAR 00BC
ENCODING 188
SWIDTH 930 0
DWIDTH 31 0
BBX 31 24 0 0
BITMAP
1E001C00
7E003C00
FE003800
EE007800
0E007000
0E00F000
0E00E000
0E01E000
0E01C3C0
0E0383C0
0E078780
0E070780
0E0F0F00
0E0E0F38
0E1E1E78
0E1C1E78
00383C78
00783C78
00707FFE
00F07FFE
00E07FFC
01E00078
01C00078
03C00078
ENDCHAR
STARTCHAR 00BD
ENCODING 189
SWIDTH 990 0
DWIDTH 33 0
BBX 32 24 0 0
BITMAP
1E001C00
7E003C00
FE003800
CE007000
0E007000
0E00E000
0E01E000
0E01C000
0E03CFFC
0E038FFE
0E078FFF
0E07001F
0E0E000F
0E0E000F
0E1C000F
003C001E
0038003E
0078007C
007000F8
00E003F0
00E007C0
01C007FF
03C007FF
038007FF
ENDCHAR
STARTCHAR 00BE
ENCODING 190
SWIDTH 1050 0
DWIDTH 35 0
BBX 33 25 1 0
BITMAP
3800038000
FFC0078000
FFE0070000
FFE00F0000
01E00E0000
00E01C0000
01E01C0000
7FE0380000
7F80780000
7FE070F000
01E0F0F000
00E0E1E000
01E1E1E000
FFE1C3C000
FFE383CE00
FFC3879E00
0007079E00
000F0F1E00
000E0F1E00
001E1FFF80
001C1FFF80
003C1FFF00
0038001E00
0070001E00
0070001E00
ENDCHAR
STARTCHAR 00BF
ENCODING 191
SWIDTH 540 0
DWIDTH 18 0
BBX 17 25 1 -9
BITMAP
00E000
01F000
01F000
01F000
01F000
000000
000000
00E000
00E000
00E000
1FE000
3FE000
7FE000
FFE000
F80000
F80000
F80000
F80000
F80000
F80000
FE0000
7FFF80
7FFF80
3FFF80
0FFE00
ENDCHAR
STARTCHAR 00C0
ENCODING 192
SWIDTH 690 0
DWIDTH 23 0
BBX 21 31 1 0
BITMAP
03C000
01C000
01E000
00F000
007000
000000
000000
00FC00
00FC00
01FC00
01FE00
01FE00
03FE00
03FF00
03FF00
07CF00
07CF80
07CF80
0F8780
0F87C0
0F87C0
1F03C0
1FFFE0
1FFFE0
3FFFE0
3FFFF0
3E01F0
7C01F0
7C00F8
7C00F8
F800F8
ENDCHAR
STARTCHAR 00C1
ENCODING 193
SWIDTH 690 0
DWIDTH 23 0
BBX 21 31 1 0
BITMAP
000F00
000E00
001E00
003C00
003800
000000
000000
00FC00
00FC00
01FC00
01FE00
01FE00
03FE00
03FF00
03FF00
07CF00
07CF80
07CF80
0F8780
0F87C0
0F87C0
1F03C0
1FFFE0
1FFFE0
3FFFE0
3FFFF0
3E01F0
7C01F0
7C00F8
7C00F8
F800F8
ENDCHAR
STARTCHAR 00C2
ENCODING 194
SWIDTH 690 0
DWIDTH 23 0
BBX 21 31 1 0
BITMAP
007800
007C00
00FC00
01CE00
038700
000000
000000
00FC00
00FC00
01FC00
01FE00
01FE00
03FE00
03FF00
03FF00
07CF00
07CF80
07CF80
0F8780
0F87C0
0F87C0
1F03C0
1FFFE0
1FFFE0
3FFFE0
3FFFF0
3E01F0
7C01F0
7C00F8
7C00F8
F800F8
ENDCHAR
STARTCHAR 00C3
ENCODING 195
SWIDTH 690 0
DWIDTH 23 0
BBX 21 30 1 0
BITMAP
01E100
03FF80
07FF00
021E00
000000
000000
00FC00
00FC00
01FC00
01FE00
01FE00
03FE00
03FF00
03FF00
07CF00
07CF80
07CF80
0F8780
0F87C0
0F87C0
1F03C0
1FFFE0
1FFFE0
3FFFE0
3FFFF0
3E01F0
7C01F0
7C00F8
7C00F8
F800F8
ENDCHAR
STARTCHAR 00C4
ENCODING 196
SWIDTH 690 0
DWIDTH 23 0
BBX 21 30 1 0
BITMAP
030380
078780
078780
030300
000000
000000
00FC00
00FC00
01FC00
01FE00
01FE00
03FE00
03FF00
03FF00
07CF00
07CF80
07CF80
0F8780
0F87C0
0F87C0
1F03C0
1FFFE0
1FFFE0
3FFFE0
3FFFF0
3E01F0
7C01F0
7C00F8
7C00F8
F800F8
ENDCHAR
STARTCHAR 00C5
ENCODING 197
SWIDTH 690 0
DWIDTH 23 0
BBX 21 31 1 0
BITMAP
007800
00FC00
00CC00
00CC00
00CC00
00FC00
007800
00FC00
00FC00
01FE00
01FE00
01FE00
03FF00
03FF00
03FF00
07CF80
07CF80
07CF80
0F8780
0F87C0
0F87C0
1F03C0
1FFFE0
1FFFE0
3FFFE0
3FFFF0
3E01F0
7C01F0
7C00F8
7C00F8
F800F8
ENDCHAR
STARTCHAR 00C6
ENCODING 198
SWIDTH 960 0
DWIDTH 32 0
BBX 30 24 1 0
BITMAP
0003FFFC
000FFFFC
001FFFFC
003FFFFC
003FF000
007FE000
007BE000
00FBE000
01F3E000
01F3E000
03E3FFF0
03E3FFF0
07C3FFF0
07FFFFF0
0FFFE000
0FFFE000
1FFFE000
1F03E000
3E03E000
3E03F3FC
7C03FFFC
7C03FFFC
F801FFFC
F800FF00
ENDCHAR
STARTCHAR 00C7
ENCODING 199
SWIDTH 570 0
DWIDTH 19 0
BBX 17 31 1 -6
BITMAP
07FE00
0FFF80
1FFF80
3FFF80
7F0780
7C0000
7C0000
780000
780000
F80000
F80000
F80000
F80000
F80000
F80000
F80000
780000
7C0000
7C0000
7E0000
3F8180
3FFF80
1FFF80
0FFF80
03FF00
000000
070000
070000
1F0000
1F0000
1C0000
ENDCHAR
STARTCHAR 00C8
ENCODING 200
SWIDTH 570 0
DWIDTH 19 0
BBX 16 31 2 0
BITMAP
0F00
0780
0380
01C0
01E0
0000
0000
3FFF
7FFF
FFFF
FFFF
FC00
F800
F800
F800
F800
F800
FFFC
FFFC
FFFC
FFFC
F800
F800
F800
F800
F800
FC00
FFFF
FFFF
7FFF
3FFF
ENDCHAR
STARTCHAR 00C9
ENCODING 201
SWIDTH 570 0
DWIDTH 19 0
BBX 16 31 2 0
BITMAP
003C
0078
00F0
00E0
01C0
0000
0000
3FFF
7FFF
FFFF
FFFF
FC00
F800
F800
F800
F800
F800
FFFC
FFFC
FFFC
FFFC
F800
F800
F800
F800
F800
FC00
FFFF
FFFF
7FFF
3FFF
ENDCHAR
STARTCHAR 00CA
ENCODING 202
SWIDTH 570 0
DWIDTH 19 0
BBX 16 31 2 0
BITMAP
01E0
03F0
07F0
0F38
0000
0000
0000
3FFF
7FFF
FFFF
FFFF
FC00
F800
F800
F800
F800
F800
FFFC
FFFC
FFFC
FFFC
F800
F800
F800
F800
F800
FC00
FFFF
FFFF
7FFF
3FFF
ENDCHAR
STARTCHAR 00CB
ENCODING 203
SWIDTH 570 0
DWIDTH 19 0
BBX 16 30 2 0
BITMAP
181C
3C1E
3C1E
181C
0000
0000
3FFF
7FFF
FFFF
FFFF
FC00
F800
F800
F800
F800
F800
FFFC
FFFC
FFFC
FFFC
F800
F800
F800
F800
F800
FC00
FFFF
FFFF
7FFF
3FFF
ENDCHAR
STARTCHAR 00CC
ENCODING 204
SWIDTH 240 0
DWIDTH 8 0
BBX 8 31 -1 0
BITMAP
F0
78
38
1C
0E
00
00
1F
1F
1F
1F
1F
1F
1F
1F
1F
1F
1F
1F
1F
1F
1F
1F
1F
1F
1F
1F
1F
1F
1F
1F
ENDCHAR
STARTCHAR 00CD
ENCODING 205
SWIDTH 240 0
DWIDTH 8 0
BBX 8 31 2 0
BITMAP
0F
1E
3C
38
70
00
00
F8
F8
F8
F8
F8
F8
F8
F8
F8
F8
F8
F8
F8
F8
F8
F8
F8
F8
F8
F8
F8
F8
F8
F8
ENDCHAR
STARTCHAR 00CE
ENCODING 206
SWIDTH 240 0
DWIDTH 8 0
BBX 10 31 -1 0
BITMAP
0E00
1F00
3F80
7BC0
F1C0
0000
0000
1F00
1F00
1F00
1F00
1F00
1F00
1F00
1F00
1F00
1F00
1F00
1F00
1F00
1F00
1F00
1F00
1F00
1F00
1F00
1F00
1F00
1F00
1F00
1F00
ENDCHAR
STARTCHAR 00CF
ENCODING 207
SWIDTH 240 0
DWIDTH 8 0
BBX 13 30 -2 0
BITMAP
6070
F078
F070
6070
0000
0000
0F80
0F80
0F80
0F80
0F80
0F80
0F80
0F80
0F80
0F80
0F80
0F80
0F80
0F80
0F80
0F80
0F80
0F80
0F80
0F80
0F80
0F80
0F80
0F80
ENDCHAR
STARTCHAR 00D0
ENCODING 208
SWIDTH 660 0
DWIDTH 22 0
BBX 21 24 0 0
BITMAP
3FFE00
3FFF80
3FFFC0
3FFFE0
3E07F0
3E01F0
3E01F0
3E00F0
3E00F8
3E00F8
3E00F8
FFC0F8
FFC0F8
3E00F8
3E00F8
3E00F8
3E00F0
3E01F0
3E01F0
3E07F0
3FFFE0
3FFFC0
3FFF80
3FFE00
ENDCHAR
STARTCHAR 00D1
ENCODING 209
SWIDTH 690 0
DWIDTH 23 0
BBX 19 30 2 0
BITMAP
03C600
07FE00
0FFE00
0C3800
000000
000000
F803E0
FC03E0
FC03E0
FE03E0
FF03E0
FF03E0
FF83E0
FF83E0
FFC3E0
FFE3E0
FBE3E0
FBF3E0
F9FBE0
F8FBE0
F8FFE0
F87FE0
F83FE0
F83FE0
F81FE0
F80FE0
F80FE0
F807E0
F807E0
F803E0
ENDCHAR
STARTCHAR 00D2
ENCODING 210
SWIDTH 660 0
DWIDTH 22 0
BBX 19 31 2 0
BITMAP
0F0000
078000
038000
01C000
01E000
000000
000000
07FC00
1FFF00
3FFF80
7FFFC0
7E0FC0
FC07C0
F803E0
F803E0
F003E0
F003E0
F001E0
F001E0
F001E0
F001E0
F001E0
F003E0
F803E0
F803E0
F807E0
7F1FC0
7FFFC0
3FFF80
1FFF00
07FC00
ENDCHAR
STARTCHAR 00D3
ENCODING 211
SWIDTH 660 0
DWIDTH 22 0
BBX 19 31 2 0
BITMAP
001E00
003C00
003800
007000
00E000
000000
000000
07FC00
1FFF00
3FFF80
7FFFC0
7E0FC0
FC07C0
F803E0
F803E0
F003E0
F003E0
F001E0
F001E0
F001E0
F001E0
F001E0
F003E0
F803E0
F803E0
F807E0
7F1FC0
7FFFC0
3FFF80
1FFF00
07FC00
ENDCHAR
STARTCHAR 00D4
ENCODING 212
SWIDTH 660 0
DWIDTH 22 0
BBX 19 30 2 0
BITMAP
01F000
03F800
03BC00
071C00
000000
000000
07FC00
1FFF00
3FFF80
7FFFC0
7E0FC0
FC07C0
F803E0
F803E0
F003E0
F003E0
F001E0
F001E0
F001E0
F001E0
F001E0
F003E0
F803E0
F803E0
F807E0
7F1FC0
7FFFC0
3FFF80
1FFF00
07FC00
ENDCHAR
STARTCHAR 00D5
ENCODING 213
SWIDTH 660 0
DWIDTH 22 0
BBX 19 30 2 0
BITMAP
038600
07FE00
0FFC00
0C3800
000000
000000
07FC00
1FFF00
3FFF80
7FFFC0
7E0FC0
FC07C0
F803E0
F803E0
F003E0
F003E0
F001E0
F001E0
F001E0
F001E0
F001E0
F003E0
F803E0
F803E0
F807E0
7F1FC0
7FFFC0
3FFF80
1FFF00
07FC00
ENDCHAR
STARTCHAR 00D6
ENCODING 214
SWIDTH 660 0
DWIDTH 22 0
BBX 19 30 2 0
BITMAP
0C0600
1E0F00
1E0F00
0E0E00
000000
000000
07FC00
1FFF00
3FFF80
7FFFC0
7E0FC0
FC07C0
F803E0
F803E0
F003E0
F003E0
F001E0
F001E0
F001E0
F001E0
F001E0
F003E0
F803E0
F803E0
F807E0
7F1FC0
7FFFC0
3FFF80
1FFF00
07FC00
ENDCHAR
STARTCHAR 00D7
ENCODING 215
SWIDTH 450 0
DWIDTH 15 0
BBX 12 12 2 6
BITMAP
2040
70E0
F9F0
FFE0
7FC0
3F80
1F80
3FC0
7FE0
FBF0
F1E0
60C0
ENDCHAR
STARTCHAR 00D8
ENCODING 216
SWIDTH 690 0
DWIDTH 23 0
BBX 19 24 2 0
BITMAP
07FCE0
1FFFC0
3FFF80
7FFFC0
7E0FC0
7C07E0
F80FE0
F81FE0
F81BE0
F831E0
F071E0
F0E1E0
F0C1E0
F9C1E0
FB81E0
FB01E0
FE03E0
FE03E0
FC07E0
7E1FC0
7FFFC0
7FFF80
7FFF00
C7FC00
ENDCHAR
STARTCHAR 00D9
ENCODING 217
SWIDTH 660 0
DWIDTH 22 0
BBX 19 31 2 0
BITMAP
0F0000
078000
038000
01C000
00E000
000000
000000
F803E0
F803E0
F803E0
F803E0
F803E0
F803E0
F803E0
F803E0
F803E0
F803E0
F803E0
F803E0
F803E0
F803E0
F803E0
F803E0
F803C0
F807C0
FC07C0
7E1FC0
7FFF80
3FFF80
1FFF00
0FFC00
ENDCHAR
STARTCHAR 00DA
ENCODING 218
SWIDTH 660 0
DWIDTH 22 0
BBX 19 31 2 0
BITMAP
001E00
003C00
007800
007000
00E000
000000
000000
F803E0
F803E0
F803E0
F803E0
F803E0
F803E0
F803E0
F803E0
F803E0
F803E0
F803E0
F803E0
F803E0
F803E0
F803E0
F803E0
F803C0
F807C0
FC07C0
7E1FC0
7FFF80
3FFF80
1FFF00
0FFC00
ENDCHAR
STARTCHAR 00DB
ENCODING 219
SWIDTH 660 0
DWIDTH 22 0
BBX 19 31 2 0
BITMAP
00E000
01F000
03F800
07BC00
0F1C00
000000
000000
F803E0
F803E0
F803E0
F803E0
F803E0
F803E0
F803E0
F803E0
F803E0
F803E0
F803E0
F803E0
F803E0
F803E0
F803E0
F803E0
F803C0
F807C0
FC07C0
7E1FC0
7FFF80
3FFF80
1FFF00
0FFC00
ENDCHAR
STARTCHAR 00DC
ENCODING 220
SWIDTH 660 0
DWIDTH 22 0
BBX 19 30 2 0
BITMAP
0C0E00
1E0E00
1E0E00
0C0E00
000000
000000
F803E0
F803E0
F803E0
F803E0
F803E0
F803E0
F803E0
F803E0
F803E0
F803E0
F803E0
F803E0
F803E0
F803E0
F803E0
F803E0
F803C0
F807C0
FC07C0
7E1FC0
7FFF80
3FFF80
1FFF00
0FFC00
ENDCHAR
STARTCHAR 00DD
ENCODING 221
SWIDTH 660 0
DWIDTH 22 0
BBX 20 31 1 0
BITMAP
001F00
001E00
003C00
003800
007000
000000
000000
F801F0
7C03F0
7C03E0
3E03E0
3E07C0
1E07C0
1F0F80
1F0F80
0F9F00
0F9F00
07FE00
07FE00
03FC00
03FC00
01F800
01F800
01F000
00F000
00F000
00F000
00F000
00F000
00F000
00F000
ENDCHAR
STARTCHAR 00DE
ENCODING 222
SWIDTH 540 0
DWIDTH 18 0
BBX 15 25 2 0
BITMAP
F000
F000
F000
F000
F000
FFF0
FFF8
FFFC
FFFC
F07E
F03E
F03E
F03E
F03E
F03E
F07E
FFFC
FFFC
FFF8
F7F0
F000
F000
F000
F000
F000
ENDCHAR
STARTCHAR 00DF
ENCODING 223
SWIDTH 570 0
DWIDTH 19 0
BBX 17 26 2 0
BITMAP
0FE000
3FF800
7FFC00
FFFE00
FC7F00
F81F00
F01F00
F01F00
F01E00
F03E00
F07C00
F0F800
F1F000
F1E000
F1E000
F1F000
F0FC00
F07F00
F01F00
F00F80
F00F80
F00F80
F3FF00
F3FF00
F3FE00
F3FC00
ENDCHAR
STARTCHAR 00E0
ENCODING 224
SWIDTH 510 0
DWIDTH 17 0
BBX 15 25 1 0
BITMAP
3E00
1E00
0F00
0700
0380
0000
0000
1FF0
7FFC
7FFC
7FFE
003E
003E
003E
3FFE
7FFE
FFFE
F83E
F83E
F83E
F87E
FFFE
FFFE
7FDE
1F1E
ENDCHAR
STARTCHAR 00E1
ENCODING 225
SWIDTH 510 0
DWIDTH 17 0
BBX 15 25 1 0
BITMAP
0078
0070
00F0
01E0
01C0
0000
0000
1FF0
7FFC
7FFC
7FFE
003E
003E
003E
3FFE
7FFE
FFFE
F83E
F83E
F83E
F87E
FFFE
FFFE
7FDE
1F1E
ENDCHAR
STARTCHAR 00E2
ENCODING 226
SWIDTH 510 0
DWIDTH 17 0
BBX 15 24 1 0
BITMAP
03C0
07E0
0FF0
1E70
0000
0000
07C0
7FF8
7FFC
7FFE
003E
003E
003E
1FFE
7FFE
FFFE
F83E
F83E
F83E
F87E
FFFE
FFFE
7FDE
1F1E
ENDCHAR
STARTCHAR 00E3
ENCODING 227
SWIDTH 510 0
DWIDTH 17 0
BBX 15 24 1 0
BITMAP
0F18
1FF8
3FF8
10E0
0000
0000
1FF0
7FFC
7FFC
7FFE
003E
003E
003E
3FFE
7FFE
FFFE
F83E
F83E
F83E
F87E
FFFE
FFFE
7FDE
1F1E
ENDCHAR
STARTCHAR 00E4
ENCODING 228
SWIDTH 510 0
DWIDTH 17 0
BBX 15 24 1 0
BITMAP
3818
383C
383C
3818
0000
0000
1FF0
7FFC
7FFC
7FFE
003E
003E
003E
3FFE
7FFE
FFFE
F83E
F83E
F83E
F87E
FFFE
FFFE
7FDE
1F1E
ENDCHAR
STARTCHAR 00E5
ENCODING 229
SWIDTH 510 0
DWIDTH 17 0
BBX 15 27 1 0
BITMAP
0380
07E0
0660
0C60
0660
07E0
03C0
0000
0000
1FF0
7FFC
7FFC
7FFE
003E
003E
003E
3FFE
7FFE
FFFE
F83E
F83E
F83E
F87E
FFFE
FFFE
7FDE
1F1E
ENDCHAR
STARTCHAR 00E6
ENCODING 230
SWIDTH 840 0
DWIDTH 28 0
BBX 26 18 1 0
BITMAP
3FF1FE00
7FFFFF80
7FFFFF80
7FFFFFC0
003F07C0
003F07C0
003F07C0
1FFFFFC0
7FFFFF80
FFFFFF00
F83F0000
F83F0000
F83F0000
F87F0000
FFFFFFC0
FFFFFFC0
7FEFFFC0
1F03FF00
ENDCHAR
STARTCHAR 00E7
ENCODING 231
SWIDTH 480 0
DWIDTH 16 0
BBX 14 24 1 -6
BITMAP
1FF0
3FFC
7FFC
7FFC
7C00
F800
F800
F800
F800
F800
F800
F800
7800
7C00
7FFC
7FFC
3FFC
0FF8
0000
01C0
01C0
07C0
0F80
0F00
ENDCHAR
STARTCHAR 00E8
ENCODING 232
SWIDTH 540 0
DWIDTH 18 0
BBX 15 24 1 0
BITMAP
1E00
0F00
0700
0380
0000
0000
0FF8
3FFC
7FFE
7FFE
781E
F81E
F81E
F83E
FFFE
FFFE
FFF8
F800
F800
7C00
7FFE
7FFE
3FFE
1FFC
ENDCHAR
STARTCHAR 00E9
ENCODING 233
SWIDTH 540 0
DWIDTH 18 0
BBX 15 24 1 0
BITMAP
0078
00F0
00E0
01C0
0000
0000
0FF8
3FFC
7FFE
7FFE
781E
F81E
F81E
F83E
FFFE
FFFE
FFF8
F800
F800
7C00
7FFE
7FFE
3FFE
1FFC
ENDCHAR
STARTCHAR 00EA
ENCODING 234
SWIDTH 540 0
DWIDTH 18 0
BBX 15 24 1 0
BITMAP
03C0
07E0
0FF0
1E78
0000
0000
0FF8
3FFC
7FFE
7FFE
781E
F81E
F81E
F83E
FFFE
FFFE
FFF8
F800
F800
7C00
7FFE
7FFE
3FFE
1FFC
ENDCHAR
STARTCHAR 00EB
ENCODING 235
SWIDTH 540 0
DWIDTH 18 0
BBX 15 24 1 0
BITMAP
3818
383C
383C
3818
0000
0000
0FF8
3FFC
7FFE
7FFE
781E
F81E
F81E
F83E
FFFE
FFFE
FFF8
F800
F800
7C00
7FFE
7FFE
3FFE
1FFC
ENDCHAR
STARTCHAR 00EC
ENCODING 236
SWIDTH 240 0
DWIDTH 8 0
BBX 7 24 -1 0
BITMAP
F0
70
38
1C
00
00
1E
1E
1E
1E
1E
1E
1E
1E
1E
1E
1E
1E
1E
1E
1E
1E
1E
1E
ENDCHAR
STARTCHAR 00ED
ENCODING 237
SWIDTH 240 0
DWIDTH 8 0
BBX 7 24 2 0
BITMAP
1E
3C
78
70
00
00
F0
F0
F0
F0
F0
F0
F0
F0
F0
F0
F0
F0
F0
F0
F0
F0
F0
F0
ENDCHAR
STARTCHAR 00EE
ENCODING 238
SWIDTH 240 0
DWIDTH 8 0
BBX 10 24 -1 0
BITMAP
1E00
3F00
7F80
E3C0
0000
0000
1E00
1E00
1E00
1E00
1E00
1E00
1E00
1E00
1E00
1E00
1E00
1E00
1E00
1E00
1E00
1E00
1E00
1E00
ENDCHAR
STARTCHAR 00EF
ENCODING 239
SWIDTH 240 0
DWIDTH 8 0
BBX 12 24 -2 0
BITMAP
E060
F0F0
E0F0
E060
0000
0000
0F00
0F00
0F00
0F00
0F00
0F00
0F00
0F00
0F00
0F00
0F00
0F00
0F00
0F00
0F00
0F00
0F00
0F00
ENDCHAR
STARTCHAR 00F0
ENCODING 240
SWIDTH 540 0
DWIDTH 18 0
BBX 16 26 1 0
BITMAP
3E00
3FCC
3FFE
3FF8
03F8
0F7C
043C
003E
0FFE
3FFE
7FFF
7FFF
FC3F
F81F
F81F
F81F
F81F
F81F
F81F
F81F
F81F
FC3E
7FFE
7FFE
3FFC
1FF0
ENDCHAR
STARTCHAR 00F1
ENCODING 241
SWIDTH 540 0
DWIDTH 18 0
BBX 15 24 2 0
BITMAP
0E18
3FF8
3FF0
31E0
0000
0000
E1F0
F7FC
FFFC
FFFE
F83E
F03E
F03E
F03E
F03E
F03E
F03E
F03E
F03E
F03E
F03E
F03E
F03E
F03E
ENDCHAR
STARTCHAR 00F2
ENCODING 242
SWIDTH 570 0
DWIDTH 19 0
BBX 16 24 1 0
BITMAP
1E00
0F00
0780
0380
0000
0000
0FF0
3FFC
3FFE
7FFF
7C1F
781F
F80F
F80F
F80F
F80F
F80F
F80F
F81F
7C1F
7FFF
3FFE
3FFC
0FF0
ENDCHAR
STARTCHAR 00F3
ENCODING 243
SWIDTH 570 0
DWIDTH 19 0
BBX 16 24 1 0
BITMAP
0078
0070
00F0
01E0
0000
0000
0FF0
3FFC
3FFE
7FFF
7C1F
781F
F80F
F80F
F80F
F80F
F80F
F80F
F81F
7C1F
7FFF
3FFE
3FFC
0FF0
ENDCHAR
STARTCHAR 00F4
ENCODING 244
SWIDTH 570 0
DWIDTH 19 0
BBX 16 24 1 0
BITMAP
03E0
03F0
0770
0E38
0000
0000
0FF0
3FFC
3FFE
7FFF
7C1F
781F
F80F
F80F
F80F
F80F
F80F
F80F
F81F
7C1F
7FFF
3FFE
3FFC
0FF0
ENDCHAR
STARTCHAR 00F5
ENCODING 245
SWIDTH 570 0
DWIDTH 19 0
BBX 16 24 1 0
BITMAP
070C
0FFC
1FF8
1870
0000
0000
0FF0
3FFC
3FFE
7FFF
7C1F
781F
F80F
F80F
F80F
F80F
F80F
F80F
F81F
7C1F
7FFF
3FFE
3FFC
0FF0
ENDCHAR
STARTCHAR 00F6
ENCODING 246
SWIDTH 570 0
DWIDTH 19 0
BBX 16 24 1 0
BITMAP
181C
3C1C
3C1E
181C
0000
0000
0FF0
3FFC
3FFE
7FFF
7C1F
781F
F80F
F80F
F80F
F80F
F80F
F80F
F81F
7C1F
7FFF
3FFE
3FFC
0FF0
ENDCHAR
STARTCHAR 00F7
ENCODING 247
SWIDTH 510 0
DWIDTH 17 0
BBX 14 15 1 4
BITMAP
0780
0780
0780
0780
0000
FFFC
FFFC
FFFC
FFFC
0000
0000
0780
0780
0780
0780
ENDCHAR
STARTCHAR 00F8
ENCODING 248
SWIDTH 570 0
DWIDTH 19 0
BBX 16 18 2 0
BITMAP
0FF7
3FFE
7FFC
FFFE
F83E
F87E
F0FF
F0DF
F19F
F31F
F71F
FE1F
FC1F
F83E
FFFE
7FFC
FFFC
CFF0
ENDCHAR
STARTCHAR 00F9
ENCODING 249
SWIDTH 540 0
DWIDTH 18 0
BBX 16 24 1 0
BITMAP
1E00
0F00
0780
0380
0000
0000
F81F
F81F
F81F
F81F
F81F
F81F
F81F
F81F
F81F
F81F
F81F
F81F
F81F
F83F
7FFF
7FFF
3FDF
1F0F
ENDCHAR
STARTCHAR 00FA
ENCODING 250
SWIDTH 540 0
DWIDTH 18 0
BBX 16 24 1 0
BITMAP
0078
00F0
00E0
01C0
0000
0000
F81F
F81F
F81F
F81F
F81F
F81F
F81F
F81F
F81F
F81F
F81F
F81F
F81F
F83F
7FFF
7FFF
3FDF
1F0F
ENDCHAR
STARTCHAR 00FB
ENCODING 251
SWIDTH 540 0
DWIDTH 18 0
BBX 16 24 1 0
BITMAP
03C0
07E0
0FF0
1E78
0000
0000
F81F
F81F
F81F
F81F
F81F
F81F
F81F
F81F
F81F
F81F
F81F
F81F
F81F
F83F
7FFF
7FFF
3FDF
1F0F
ENDCHAR
STARTCHAR 00FC
ENCODING 252
SWIDTH 540 0
DWIDTH 18 0
BBX 16 24 1 0
BITMAP
381C
3C3C
3C3C
1818
0000
0000
F81F
F81F
F81F
F81F
F81F
F81F
F81F
F81F
F81F
F81F
F81F
F81F
F81F
F83F
7FFF
7FFF
3FDF
1F0F
ENDCHAR
STARTCHAR 00FD
ENCODING 253
SWIDTH 570 0
DWIDTH 19 0
BBX 18 33 1 -9
BITMAP
003C00
007800
00F000
00E000
000000
000000
F807C0
F80F80
F80F80
F80F80
7C0F00
7C1F00
7C1F00
7C1F00
3E1E00
3E3E00
3E3E00
1E3E00
1F3C00
1F7C00
1FFC00
0FFC00
07F800
01F800
00F800
00F800
01F000
01F000
01F000
01E000
03E000
03C000
038000
ENDCHAR
STARTCHAR 00FE
ENCODING 254
SWIDTH 570 0
DWIDTH 19 0
BBX 16 35 2 -9
BITMAP
F000
F000
F000
F000
F000
F000
F000
F000
F1F0
F7F8
FFFC
FFFE
FC3E
F03E
F01E
F01E
F01F
F01F
F01E
F01E
F01E
F03E
F83E
FFFE
FFFC
F7F8
F0E0
F000
F000
F000
F000
F000
F000
F000
F000
ENDCHAR
STARTCHAR 00FF
ENCODING 255
SWIDTH 570 0
DWIDTH 19 0
BBX 18 33 1 -9
BITMAP
1C0C00
3C1E00
3C1E00
1C0C00
000000
000000
F807C0
F80F80
F80F80
F80F80
7C0F00
7C1F00
7C1F00
7C1F00
3E1E00
3E3E00
3E3E00
1E3E00
1F3C00
1F7C00
1FFC00
0FFC00
07F800
01F800
00F800
00F800
01F000
01F000
01F000
01E000
03E000
03C000
038000
ENDCHAR
STARTCHAR 0100
ENCODING 256
SWIDTH 690 0
DWIDTH 23 0
BBX 21 29 1 0
BITMAP
03FF00
03FF00
03FF00
000000
000000
00FC00
00FC00
01FC00
01FE00
01FE00
03FE00
03FF00
03FF00
07CF00
07CF80
07CF80
0F8780
0F87C0
0F87C0
1F03C0
1FFFE0
1FFFE0
3FFFE0
3FFFF0
3E01F0
7C01F0
7C00F8
7C00F8
F800F8
ENDCHAR
STARTCHAR 0101
ENCODING 257
SWIDTH 510 0
DWIDTH 17 0
BBX 15 23 1 0
BITMAP
1FF8
1FF8
1FF8
0000
0000
1FF0
7FFC
7FFC
7FFE
003E
003E
003E
3FFE
7FFE
FFFE
F83E
F83E
F83E
F87E
FFFE
FFFE
7FDE
1F1E
ENDCHAR
STARTCHAR 0102
ENCODING 258
SWIDTH 690 0
DWIDTH 23 0
BBX 21 30 1 0
BITMAP
018600
01CE00
00FC00
007800
000000
000000
00FC00
00FC00
01FC00
01FE00
01FE00
03FE00
03FF00
03FF00
07CF00
07CF80
07CF80
0F8780
0F87C0
0F87C0
1F03C0
1FFFE0
1FFFE0
3FFFE0
3FFFF0
3E01F0
7C01F0
7C00F8
7C00F8
F800F8
ENDCHAR
STARTCHAR 0103
ENCODING 259
SWIDTH 510 0
DWIDTH 17 0
BBX 15 24 1 0
BITMAP
0C30
0E70
07E0
03C0
0000
0000
1FF0
7FFC
7FFC
7FFE
003E
003E
003E
3FFE
7FFE
FFFE
F83E
F83E
F83E
F87E
FFFE
FFFE
7FDE
1F1E
ENDCHAR
STARTCHAR 0104
ENCODING 260
SWIDTH 690 0
DWIDTH 23 0
BBX 21 30 1 -7
BITMAP
00FC00
00FC00
01FC00
01FE00
01FE00
03FE00
03FF00
03FF00
07CF00
07CF80
07CF80
0F8780
0F87C0
0F87C0
1F03C0
1FFFE0
1FFFE0
3FFFE0
3FFFF0
3E01F0
7C01F0
7C00F8
7C00F8
F800F8
000070
0000E0
0000E0
0000F0
0000F0
000070
ENDCHAR
STARTCHAR 0105
ENCODING 261
SWIDTH 510 0
DWIDTH 17 0
BBX 15 24 1 -7
BITMAP
1FF0
7FFC
7FFC
7FFE
003E
003E
003E
3FFE
7FFE
FFFE
F83E
F83E
F83E
F87E
FFFE
FFFE
7FDE
1F1E
0018
0038
0038
003C
001C
000C
ENDCHAR
STARTCHAR 0106
ENCODING 262
SWIDTH 570 0
DWIDTH 19 0
BBX 17 32 1 0
BITMAP
001F00
001E00
003C00
003800
007000
000000
000000
07FE00
0FFF80
1FFF80
3FFF80
7F0780
7C0000
7C0000
780000
780000
F80000
F80000
F80000
F80000
F80000
F80000
F80000
780000
7C0000
7C0000
7E0000
3F8180
3FFF80
1FFF80
0FFF80
03FF00
ENDCHAR
STARTCHAR 0107
ENCODING 263
SWIDTH 480 0
DWIDTH 16 0
BBX 14 24 1 0
BITMAP
0078
0070
00E0
01C0
0000
0000
1FF0
3FFC
7FFC
7FFC
7C00
F800
F800
F800
F800
F800
F800
F800
7800
7C00
7FFC
7FFC
3FFC
0FF8
ENDCHAR
STARTCHAR 0108
ENCODING 264
SWIDTH 570 0
DWIDTH 19 0
BBX 17 32 1 0
BITMAP
00F000
00F800
01F800
03DC00
078E00
000000
000000
07FE00
0FFF80
1FFF80
3FFF80
7F0780
7C0000
7C0000
780000
780000
F80000
F80000
F80000
F80000
F80000
F80000
F80000
780000
7C0000
7C0000
7E0000
3F8180
3FFF80
1FFF80
0FFF80
03FF00
ENDCHAR
STARTCHAR 0109
ENCODING 265
SWIDTH 480 0
DWIDTH 16 0
BBX 14 24 1 0
BITMAP
03C0
07E0
0FF0
1E78
0000
0000
1FF0
3FFC
7FFC
7FFC
7C00
F800
F800
F800
F800
F800
F800
F800
7800
7C00
7FFC
7FFC
3FFC
0FF8
ENDCHAR
STARTCHAR 010A
ENCODING 266
SWIDTH 570 0
DWIDTH 19 0
BBX 17 31 1 0
BITMAP
00F000
00F000
00F000
00F000
000000
000000
07FE00
0FFF80
1FFF80
3FFF80
7F0780
7C0000
7C0000
780000
780000
F80000
F80000
F80000
F80000
F80000
F80000
F80000
780000
7C0000
7C0000
7E0000
3F8180
3FFF80
1FFF80
0FFF80
03FF00
ENDCHAR
STARTCHAR 010B
ENCODING 267
SWIDTH 480 0
DWIDTH 16 0
BBX 14 24 1 0
BITMAP
01C0
03C0
03C0
01C0
0000
0000
1FF0
3FFC
7FFC
7FFC
7C00
F800
F800
F800
F800
F800
F800
F800
7800
7C00
7FFC
7FFC
3FFC
0FF8
ENDCHAR
STARTCHAR 010C
ENCODING 268
SWIDTH 570 0
DWIDTH 19 0
BBX 17 32 1 0
BITMAP
070E00
039E00
01FC00
01F800
00F000
000000
000000
07FE00
0FFF80
1FFF80
3FFF80
7F0780
7C0000
7C0000
780000
780000
F80000
F80000
F80000
F80000
F80000
F80000
F80000
780000
7C0000
7C0000
7E0000
3F8180
3FFF80
1FFF80
0FFF80
03FF00
ENDCHAR
STARTCHAR 010D
ENCODING 269
SWIDTH 480 0
DWIDTH 16 0
BBX 14 24 1 0
BITMAP
1E38
0FF0
07E0
03C0
0000
0000
1FF0
3FFC
7FFC
7FFC
7C00
F800
F800
F800
F800
F800
F800
F800
7800
7C00
7FFC
7FFC
3FFC
0FF8
ENDCHAR
STARTCHAR 010E
ENCODING 270
SWIDTH 660 0
DWIDTH 22 0
BBX 19 31 2 0
BITMAP
0E1C00
0F3800
07F000
03E000
01E000
000000
000000
FFF800
FFFE00
FFFF00
FFFF80
F80FC0
F807C0
F807C0
F803C0
F803E0
F803E0
F803E0
F803E0
F803E0
F803E0
F803E0
F803E0
F803C0
F807C0
F807C0
F81FC0
FFFF80
FFFF00
FFFE00
FFF800
ENDCHAR
STARTCHAR 010F
ENCODING 271
SWIDTH 600 0
DWIDTH 20 0
BBX 21 26 1 0
BITMAP
001F38
001F38
001F38
001F38
001F38
001F38
001F38
001F00
1F9F00
3FFF00
7FFF00
7FFF00
7C1F00
F81F00
F81F00
F81F00
F81F00
F81F00
F81F00
F81F00
F81F00
7C3F00
7FFF00
7FFF00
3FEF00
1F8F00
ENDCHAR
STARTCHAR 0110
ENCODING 272
SWIDTH 660 0
DWIDTH 22 0
BBX 21 24 0 0
BITMAP
3FFE00
3FFF80
3FFFC0
3FFFE0
3E07F0
3E01F0
3E01F0
3E00F0
3E00F8
3E00F8
3E00F8
FFC0F8
FFC0F8
3E00F8
3E00F8
3E00F8
3E00F0
3E01F0
3E01F0
3E07F0
3FFFE0
3FFFC0
3FFF80
3FFE00
ENDCHAR
STARTCHAR 0111
ENCODING 273
SWIDTH 570 0
DWIDTH 19 0
BBX 18 26 1 0
BITMAP
001F00
001F00
001F00
001F00
00FFC0
00FFC0
001F00
001F00
1F9F00
3FFF00
7FFF00
7FFF00
FC1F00
F81F00
F81F00
F81F00
F81F00
F81F00
F81F00
F81F00
F81F00
7C3F00
7FFF00
7FFF00
3FEF00
0F0F00
ENDCHAR
STARTCHAR 0112
ENCODING 274
SWIDTH 570 0
DWIDTH 19 0
BBX 16 29 2 0
BITMAP
0FF8
0FF8
0FF8
0000
0000
3FFF
7FFF
FFFF
FFFF
FC00
F800
F800
F800
F800
F800
FFFC
FFFC
FFFC
FFFC
F800
F800
F800
F800
F800
FC00
FFFF
FFFF
7FFF
3FFF
ENDCHAR
STARTCHAR 0113
ENCODING 275
SWIDTH 540 0
DWIDTH 18 0
BBX 15 23 1 0
BITMAP
1FF8
1FF8
1FF8
0000
0000
0FF8
3FFC
7FFE
7FFE
781E
F81E
F81E
F83E
FFFE
FFFE
FFF8
F800
F800
7C00
7FFE
7FFE
3FFE
1FFC
ENDCHAR
STARTCHAR 0116
ENCODING 278
SWIDTH 570 0
DWIDTH 19 0
BBX 16 30 2 0
BITMAP
01E0
01E0
01E0
01E0
0000
0000
3FFF
7FFF
FFFF
FFFF
FC00
F800
F800
F800
F800
F800
FFFC
FFFC
FFFC
FFFC
F800
F800
F800
F800
F800
FC00
FFFF
FFFF
7FFF
3FFF
ENDCHAR
STARTCHAR 0117
ENCODING 279
SWIDTH 540 0
DWIDTH 18 0
BBX 15 24 1 0
BITMAP
03C0
03C0
03C0
03C0
0000
0000
0FF8
3FFC
7FFE
7FFE
781E
F81E
F81E
F83E
FFFE
FFFE
FFF8
F800
F800
7C00
7FFE
7FFE
3FFE
1FFC
ENDCHAR
STARTCHAR 0118
ENCODING 280
SWIDTH 570 0
DWIDTH 19 0
BBX 16 30 2 -6
BITMAP
3FFF
7FFF
FFFF
FFFF
FC00
F800
F800
F800
F800
F800
FFFC
FFFC
FFFC
FFFC
F800
F800
F800
F800
F800
F800
FFFF
FFFF
7FFF
3FFF
0006
000C
000E
000F
0007
0003
ENDCHAR
STARTCHAR 0119
ENCODING 281
SWIDTH 540 0
DWIDTH 18 0
BBX 15 24 1 -6
BITMAP
0FF8
3FFC
7FFE
7FFE
781E
F81E
F81E
F83E
FFFE
FFFE
FFF8
F800
F800
7C00
7FFE
7FFE
3FFE
1FFE
000C
001C
001C
001E
000E
0006
ENDCHAR
STARTCHAR 011A
ENCODING 282
SWIDTH 570 0
DWIDTH 19 0
BBX 16 31 2 0
BITMAP
0E38
0778
07F0
03E0
01C0
0000
0000
3FFF
7FFF
FFFF
FFFF
FC00
F800
F800
F800
F800
F800
FFFC
FFFC
FFFC
FFFC
F800
F800
F800
F800
F800
FC00
FFFF
FFFF
7FFF
3FFF
ENDCHAR
STARTCHAR 011B
ENCODING 283
SWIDTH 540 0
DWIDTH 18 0
BBX 15 24 1 0
BITMAP
0E78
0FF0
07E0
03C0
0000
0000
0FF8
3FFC
7FFE
7FFE
781E
F81E
F81E
F83E
FFFE
FFFE
FFF8
F800
F800
7C00
7FFE
7FFE
3FFE
1FFC
ENDCHAR
STARTCHAR 011C
ENCODING 284
SWIDTH 600 0
DWIDTH 20 0
BBX 18 32 1 0
BITMAP
007000
00F800
01F800
03DC00
078E00
000000
000000
07FE00
1FFFC0
1FFFC0
3FFFC0
7F01C0
7C0000
7C0000
780000
780000
F80000
F80000
F80FC0
F83FC0
F83FC0
F83FC0
F807C0
7807C0
7807C0
7C07C0
7C07C0
7F3FC0
3FFFC0
3FFFC0
1FFBC0
07E3C0
ENDCHAR
STARTCHAR 011D
ENCODING 285
SWIDTH 570 0
DWIDTH 19 0
BBX 17 33 1 -9
BITMAP
03E000
07E000
077000
0E3800
000000
000000
1FFF80
3FFF80
7FFF80
7FFE00
F81F00
F81F00
F81F00
F81F00
7C3F00
7FFE00
7FFE00
3FFC00
7FF000
F00000
FFF800
FFFE00
7FFF00
3FFF00
781F00
F80F00
F80F00
F80F00
F80F00
7FFF00
7FFF00
3FFE00
1FFC00
ENDCHAR
STARTCHAR 011E
ENCODING 286
SWIDTH 600 0
DWIDTH 20 0
BBX 18 31 1 0
BITMAP
030C00
031C00
01F800
00F000
000000
000000
07FE00
1FFFC0
1FFFC0
3FFFC0
7F01C0
7C0000
7C0000
780000
780000
F80000
F80000
F80FC0
F83FC0
F83FC0
F83FC0
F807C0
7807C0
7807C0
7C07C0
7C07C0
7F3FC0
3FFFC0
3FFFC0
1FFBC0
07E3C0
ENDCHAR
STARTCHAR 011F
ENCODING 287
SWIDTH 570 0
DWIDTH 19 0
BBX 17 33 1 -9
BITMAP
0C3000
063000
07E000
03C000
000000
000000
1FFF80
3FFF80
7FFF80
7FFE00
F81F00
F81F00
F81F00
F81F00
7C3F00
7FFE00
7FFE00
3FFC00
7FF000
F00000
FFF800
FFFE00
7FFF00
3FFF00
781F00
F80F00
F80F00
F80F00
F80F00
7FFF00
7FFF00
3FFE00
1FFC00
ENDCHAR
STARTCHAR 0120
ENCODING 288
SWIDTH 600 0
DWIDTH 20 0
BBX 18 31 1 0
BITMAP
00F000
00F000
00F000
00F000
000000
000000
07FE00
1FFFC0
1FFFC0
3FFFC0
7F01C0
7C0000
7C0000
780000
780000
F80000
F80000
F80FC0
F83FC0
F83FC0
F83FC0
F807C0
7807C0
7807C0
7C07C0
7C07C0
7F3FC0
3FFFC0
3FFFC0
1FFBC0
07E3C0
ENDCHAR
STARTCHAR 0121
ENCODING 289
SWIDTH 570 0
DWIDTH 19 0
BBX 17 33 1 -9
BITMAP
03C000
03C000
03C000
03C000
000000
000000
1FFF80
3FFF80
7FFF80
7FFE00
F81F00
F81F00
F81F00
F81F00
7C3F00
7FFE00
7FFE00
3FFC00
7FF000
F00000
FFF800
FFFE00
7FFF00
3FFF00
781F00
F80F00
F80F00
F80F00
F80F00
7FFF00
7FFF00
3FFE00
1FFC00
ENDCHAR
STARTCHAR 0122
ENCODING 290
SWIDTH 600 0
DWIDTH 20 0
BBX 18 34 1 -10
BITMAP
07FE00
1FFFC0
1FFFC0
3FFFC0
7F01C0
7C0000
7C0000
780000
780000
F80000
F80000
F80FC0
F83FC0
F83FC0
F83FC0
F807C0
7807C0
7807C0
7C07C0
7C07C0
7F3FC0
3FFFC0
3FFFC0
1FFBC0
07E3C0
000000
000000
00E000
01E000
01E000
01E000
006000
00E000
00E000
ENDCHAR
STARTCHAR 0123
ENCODING 291
SWIDTH 570 0
DWIDTH 19 0
BBX 17 36 1 -8
BITMAP
01C000
03C000
038000
03C000
03C000
03C000
03C000
000000
000000
0FFF80
3FFF80
7FFF80
7FFE00
F81F00
F81F00
F81F00
F81F00
F81F00
7FFE00
7FFE00
3FFC00
7FF800
F00000
F80000
FFF000
7FFE00
3FFF00
7FFF00
F81F00
F80F00
F80F00
F80F00
FFFF00
7FFF00
3FFE00
1FFC00
ENDCHAR
STARTCHAR 0124
ENCODING 292
SWIDTH 630 0
DWIDTH 21 0
BBX 18 31 2 0
BITMAP
01E000
03F000
03F000
073800
0E1C00
000000
000000
F807C0
F807C0
F807C0
F807C0
F807C0
F807C0
F807C0
F807C0
F807C0
F807C0
FFFFC0
FFFFC0
FFFFC0
FFFFC0
F807C0
F807C0
F807C0
F807C0
F807C0
F807C0
F807C0
F807C0
F807C0
F807C0
ENDCHAR
STARTCHAR 0125
ENCODING 293
SWIDTH 540 0
DWIDTH 18 0
BBX 18 32 -2 0
BITMAP
3E0000
7F0000
778000
E38000
000000
000000
3E0000
3E0000
3E0000
3E0000
3E0000
3E0000
3E0000
3E0000
3E3E00
3EFF00
3FFF80
3FFF80
3F07C0
3E07C0
3E07C0
3E07C0
3E07C0
3E07C0
3E07C0
3E07C0
3E07C0
3E07C0
3E07C0
3E07C0
3E07C0
3E07C0
ENDCHAR
STARTCHAR 0126
ENCODING 294
SWIDTH 690 0
DWIDTH 23 0
BBX 22 24 0 0
BITMAP
1E00F0
1E00F0
1E00F0
1E00F0
1E00F0
FFFFFC
FFFFFC
1E00F0
1E00F0
1E00F0
1FFFF0
1FFFF0
1FFFF0
1FFFF0
1E00F0
1E00F0
1E00F0
1E00F0
1E00F0
1E00F0
1E00F0
1E00F0
1E00F0
1E00F0
ENDCHAR
STARTCHAR 0127
ENCODING 295
SWIDTH 570 0
DWIDTH 19 0
BBX 18 26 0 0
BITMAP
3E0000
3E0000
3E0000
3E0000
FFC000
FFC000
3E0000
3E0000
3E3E00
3EFF00
3FFF80
3FFF80
3F0F80
3E07C0
3E07C0
3E07C0
3E07C0
3E07C0
3E07C0
3E07C0
3E07C0
3E07C0
3E07C0
3E07C0
3E07C0
3E07C0
ENDCHAR
STARTCHAR 0128
ENCODING 296
SWIDTH 240 0
DWIDTH 8 0
BBX 11 30 -1 0
BITMAP
3860
FFE0
FFC0
C780
0000
0000
1F00
1F00
1F00
1F00
1F00
1F00
1F00
1F00
1F00
1F00
1F00
1F00
1F00
1F00
1F00
1F00
1F00
1F00
1F00
1F00
1F00
1F00
1F00
1F00
ENDCHAR
STARTCHAR 0129
ENCODING 297
SWIDTH 240 0
DWIDTH 8 0
BBX 11 24 -2 0
BITMAP
3C20
7FE0
FFE0
43C0
0000
0000
0F00
0F00
0F00
0F00
0F00
0F00
0F00
0F00
0F00
0F00
0F00
0F00
0F00
0F00
0F00
0F00
0F00
0F00
ENDCHAR
STARTCHAR 012A
ENCODING 298
SWIDTH 240 0
DWIDTH 8 0
BBX 10 29 -1 0
BITMAP
FFC0
FFC0
FFC0
0000
0000
1F00
1F00
1F00
1F00
1F00
1F00
1F00
1F00
1F00
1F00
1F00
1F00
1F00
1F00
1F00
1F00
1F00
1F00
1F00
1F00
1F00
1F00
1F00
1F00
ENDCHAR
STARTCHAR 012B
ENCODING 299
SWIDTH 240 0
DWIDTH 8 0
BBX 10 23 -1 0
BITMAP
FFC0
FFC0
FFC0
0000
0000
1E00
1E00
1E00
1E00
1E00
1E00
1E00
1E00
1E00
1E00
1E00
1E00
1E00
1E00
1E00
1E00
1E00
1E00
ENDCHAR
STARTCHAR 012E
ENCODING 302
SWIDTH 240 0
DWIDTH 8 0
BBX 6 30 1 -7
BITMAP
7C
7C
7C
7C
7C
7C
7C
7C
7C
7C
7C
7C
7C
7C
7C
7C
7C
7C
7C
7C
7C
7C
7C
7C
30
60
E0
F8
78
38
ENDCHAR
STARTCHAR 012F
ENCODING 303
SWIDTH 240 0
DWIDTH 8 0
BBX 5 31 1 -7
BITMAP
78
F8
F8
F8
F8
00
00
F8
F8
F8
F8
F8
F8
F8
F8
F8
F8
F8
F8
F8
F8
F8
F8
F8
F8
60
C0
C0
F0
F0
70
ENDCHAR
STARTCHAR 0130
ENCODING 304
SWIDTH 240 0
DWIDTH 8 0
BBX 5 30 2 0
BITMAP
F0
F0
F0
F0
00
00
F8
F8
F8
F8
F8
F8
F8
F8
F8
F8
F8
F8
F8
F8
F8
F8
F8
F8
F8
F8
F8
F8
F8
F8
ENDCHAR
STARTCHAR 0131
ENCODING 305
SWIDTH 240 0
DWIDTH 8 0
BBX 4 18 2 0
BITMAP
F0
F0
F0
F0
F0
F0
F0
F0
F0
F0
F0
F0
F0
F0
F0
F0
F0
F0
ENDCHAR
STARTCHAR 0134
ENCODING 308
SWIDTH 360 0
DWIDTH 12 0
BBX 12 32 1 -1
BITMAP
0780
07C0
0FE0
1CE0
3870
0000
0000
0780
0780
0780
0780
0780
0780
0780
0780
0780
0780
0780
0780
0780
0780
0780
0780
0780
0780
0780
0F80
FF80
FF80
FF80
FF00
1C00
ENDCHAR
STARTCHAR 0135
ENCODING 309
SWIDTH 240 0
DWIDTH 8 0
BBX 10 34 -1 -9
BITMAP
1E00
3F00
3F80
7380
E1C0
0000
0000
1F00
1F00
1F00
1F00
1F00
1F00
1F00
1F00
1F00
1F00
1F00
1F00
1F00
1F00
1F00
1F00
1F00
1F00
1F00
1F00
1E00
1E00
1E00
1E00
1E00
1E00
1C00
ENDCHAR
STARTCHAR 0136
ENCODING 310
SWIDTH 630 0
DWIDTH 21 0
BBX 18 33 2 -10
BITMAP
F00FC0
F00F80
F01F80
F03F00
F03E00
F07E00
F07C00
F0F800
F1F800
F1F000
FFF000
FFE000
FFE000
FFF000
F9F000
F9F800
F8F800
F87C00
F87E00
F83E00
F83F00
F81F80
F80F80
F80FC0
000000
000000
01C000
03C000
03C000
03C000
01C000
01C000
01C000
ENDCHAR
STARTCHAR 0137
ENCODING 311
SWIDTH 570 0
DWIDTH 19 0
BBX 16 35 2 -10
BITMAP
F000
F000
F000
F000
F000
F000
F000
F000
F03F
F07E
F0FC
F1F8
F3F0
F3E0
FFE0
FFC0
FFC0
FFE0
F3E0
F3F0
F1F8
F0F8
F0FC
F07C
F03E
F03F
0000
0000
0780
0780
0780
0780
0380
0380
0780
ENDCHAR
STARTCHAR 0138
ENCODING 312
SWIDTH 570 0
DWIDTH 19 0
BBX 16 18 2 0
BITMAP
F01F
F03E
F07E
F07C
F0F8
F1F8
F1F0
FFE0
FFE0
FFC0
FFE0
F3F0
F1F0
F1F8
F0FC
F07C
F07E
F03F
ENDCHAR
STARTCHAR 0139
ENCODING 313
SWIDTH 540 0
DWIDTH 18 0
BBX 15 31 2 0
BITMAP
0F00
1E00
3C00
3800
7000
0000
0000
F800
F800
F800
F800
F800
F800
F800
F800
F800
F800
F800
F800
F800
F800
F800
F800
F800
F800
F800
F800
FFFE
FFFE
7FFE
3FFE
ENDCHAR
STARTCHAR 013A
ENCODING 314
SWIDTH 300 0
DWIDTH 10 0
BBX 8 33 2 0
BITMAP
0F
1E
3C
38
70
00
00
F0
F0
F0
F0
F0
F0
F0
F0
F0
F0
F0
F0
F0
F0
F0
F0
F0
F0
F0
F0
F0
F8
FC
FF
7F
3F
ENDCHAR
STARTCHAR 013B
ENCODING 315
SWIDTH 540 0
DWIDTH 18 0
BBX 15 33 2 -10
BITMAP
F800
F800
F800
F800
F800
F800
F800
F800
F800
F800
F800
F800
F800
F800
F800
F800
F800
F800
F800
F800
FFFE
FFFE
7FFE
3FFE
0000
0000
03C0
03C0
03C0
03C0
01C0
01C0
0380
ENDCHAR
STARTCHAR 013C
ENCODING 316
SWIDTH 300 0
DWIDTH 10 0
BBX 8 35 2 -10
BITMAP
F0
F0
F0
F0
F0
F0
F0
F0
F0
F0
F0
F0
F0
F0
F0
F0
F0
F0
F0
F0
F0
F8
FC
FF
7F
3F
00
00
3C
3C
3C
3C
1C
3C
38
ENDCHAR
STARTCHAR 013D
ENCODING 317
SWIDTH 540 0
DWIDTH 18 0
BBX 15 25 2 0
BITMAP
01C0
F9C0
F9C0
F9C0
F9C0
F9C0
F800
F800
F800
F800
F800
F800
F800
F800
F800
F800
F800
F800
F800
F800
F800
FFFE
FFFE
7FFE
3FFE
ENDCHAR
STARTCHAR 013E
ENCODING 318
SWIDTH 360 0
DWIDTH 12 0
BBX 10 26 2 0
BITMAP
F3C0
F3C0
F3C0
F380
F180
F180
F180
F000
F000
F000
F000
F000
F000
F000
F000
F000
F000
F000
F000
F000
F000
F800
FC00
FF00
7F00
3F00
ENDCHAR
STARTCHAR 0141
ENCODING 321
SWIDTH 570 0
DWIDTH 19 0
BBX 18 24 0 0
BITMAP
1F0000
1F0000
1F0000
1F0000
1F0000
1F0000
1F0000
1F2000
1FE000
1FE000
1F8000
7F0000
FF0000
DF0000
1F0000
1F0000
1F0000
1F0000
1F0000
1F0000
1FFFC0
1FFFC0
0FFFC0
07FFC0
ENDCHAR
STARTCHAR 0142
ENCODING 322
SWIDTH 360 0
DWIDTH 12 0
BBX 11 26 0 0
BITMAP
1F00
1F00
1F00
1F00
1F00
1F00
1F00
1F00
1F60
1FE0
1F80
7F00
FF00
DF00
1F00
1F00
1F00
1F00
1F00
1F00
1F00
1F00
1F80
1FE0
0FE0
07E0
ENDCHAR
STARTCHAR 0143
ENCODING 323
SWIDTH 690 0
DWIDTH 23 0
BBX 19 31 2 0
BITMAP
001E00
003C00
003800
007000
00F000
000000
000000
F803E0
FC03E0
FC03E0
FE03E0
FF03E0
FF03E0
FF83E0
FF83E0
FFC3E0
FFE3E0
FBE3E0
FBF3E0
F9FBE0
F8FBE0
F8FFE0
F87FE0
F83FE0
F83FE0
F81FE0
F80FE0
F80FE0
F807E0
F807E0
F803E0
ENDCHAR
STARTCHAR 0144
ENCODING 324
SWIDTH 540 0
DWIDTH 18 0
BBX 15 25 2 0
BITMAP
0078
00F0
01E0
01C0
0380
0000
0000
E1F0
F7FC
FFFC
FFFE
F83E
F03E
F03E
F03E
F03E
F03E
F03E
F03E
F03E
F03E
F03E
F03E
F03E
F03E
ENDCHAR
STARTCHAR 0145
ENCODING 325
SWIDTH 690 0
DWIDTH 23 0
BBX 19 33 2 -10
BITMAP
F803E0
FC03E0
FC03E0
FE03E0
FF03E0
FF03E0
FF83E0
FF83E0
FFC3E0
FFE3E0
FBE3E0
FBF3E0
F9FBE0
F8FBE0
F8FFE0
F87FE0
F83FE0
F83FE0
F81FE0
F80FE0
F80FE0
F807E0
F807E0
F803E0
000000
000000
00E000
01E000
01E000
01E000
006000
00E000
00E000
ENDCHAR
STARTCHAR 0146
ENCODING 326
SWIDTH 540 0
DWIDTH 18 0
BBX 15 27 2 -10
BITMAP
E1F0
F7FC
FFFC
FFFE
F83E
F03E
F03E
F03E
F03E
F03E
F03E
F03E
F03E
F03E
F03E
F03E
F03E
F03E
0000
0000
0780
0780
0780
0780
0380
0380
0780
ENDCHAR
STARTCHAR 0147
ENCODING 327
SWIDTH 690 0
DWIDTH 23 0
BBX 19 31 2 0
BITMAP
070E00
079C00
03F800
01F000
00F000
000000
000000
F803E0
FC03E0
FC03E0
FE03E0
FF03E0
FF03E0
FF83E0
FF83E0
FFC3E0
FFE3E0
FBE3E0
FBF3E0
F9FBE0
F8FBE0
F8FFE0
F87FE0
F83FE0
F83FE0
F81FE0
F80FE0
F80FE0
F807E0
F807E0
F803E0
ENDCHAR
STARTCHAR 0148
ENCODING 328
SWIDTH 540 0
DWIDTH 18 0
BBX 15 24 2 0
BITMAP
1C70
1EE0
0FE0
07C0
0380
0000
E1F0
F7FC
FFFC
FFFE
F83E
F03E
F03E
F03E
F03E
F03E
F03E
F03E
F03E
F03E
F03E
F03E
F03E
F03E
ENDCHAR
STARTCHAR 014A
ENCODING 330
SWIDTH 690 0
DWIDTH 23 0
BBX 19 32 2 -9
BITMAP
F803E0
FC03E0
FC03E0
FE03E0
FF03E0
FF03E0
FF83E0
FF83E0
FFC3E0
FFE3E0
FBE3E0
FBF3E0
F9FBE0
F8FBE0
F8FFE0
F87FE0
F83FE0
F83FE0
F81FE0
F80FE0
F80FE0
F807E0
F807E0
F803E0
0003E0
0003E0
0003E0
0003E0
0007E0
001FC0
001FC0
001F80
ENDCHAR
STARTCHAR 014B
ENCODING 331
SWIDTH 570 0
DWIDTH 19 0
BBX 15 27 2 -9
BITMAP
E1F0
F7FC
FFFC
FFFE
F83E
F03E
F03E
F03E
F03E
F03E
F03E
F03E
F03E
F03E
F03E
F03E
F03E
F03E
003E
003E
003E
003E
003E
007C
01FC
00F8
00E0
ENDCHAR
STARTCHAR 014C
ENCODING 332
SWIDTH 660 0
DWIDTH 22 0
BBX 19 29 2 0
BITMAP
07FC00
07FC00
07FC00
000000
000000
07FC00
1FFF00
3FFF80
7FFFC0
7E0FC0
FC07C0
F803E0
F803E0
F003E0
F003E0
F001E0
F001E0
F001E0
F001E0
F001E0
F003E0
F803E0
F803E0
F807E0
7F1FC0
7FFFC0
3FFF80
1FFF00
07FC00
ENDCHAR
STARTCHAR 014D
ENCODING 333
SWIDTH 570 0
DWIDTH 19 0
BBX 16 23 1 0
BITMAP
1FF8
1FF8
1FF8
0000
0000
0FF0
3FFC
3FFE
7FFF
7C1F
781F
F80F
F80F
F80F
F80F
F80F
F80F
F81F
7C1F
7FFF
3FFE
3FFC
0FF0
ENDCHAR
STARTCHAR 0150
ENCODING 336
SWIDTH 660 0
DWIDTH 22 0
BBX 19 31 2 0
BITMAP
00F7C0
00E780
01EF00
03DE00
039C00
000000
000000
07FC00
1FFF00
3FFF80
7FFFC0
7E0FC0
FC07C0
F803E0
F803E0
F003E0
F003E0
F001E0
F001E0
F001E0
F001E0
F001E0
F003E0
F803E0
F803E0
F807E0
7F1FC0
7FFFC0
3FFF80
1FFF00
07FC00
ENDCHAR
STARTCHAR 0151
ENCODING 337
SWIDTH 570 0
DWIDTH 19 0
BBX 16 24 1 0
BITMAP
01EF
03DE
079C
0738
0000
0000
0FF0
3FFC
3FFE
7FFF
7C1F
781F
F80F
F80F
F80F
F80F
F80F
F80F
F81F
7C1F
7FFF
3FFE
3FFC
0FF0
ENDCHAR
STARTCHAR 0152
ENCODING 338
SWIDTH 1020 0
DWIDTH 34 0
BBX 30 24 2 0
BITMAP
07FC7FFC
1FFFFFFC
3FFFFFFC
7FFFFFFC
7E0FF000
FC07E000
F803E000
F803E000
F003E000
F003E000
F003FFF8
F001FFF8
F001FFF8
F001FFF8
F003E000
F003E000
F803E000
F803E000
F807E000
7F1FFFFC
7FFFFFFC
3FFFFFFC
1FFFFFFC
07FC7F00
ENDCHAR
STARTCHAR 0153
ENCODING 339
SWIDTH 870 0
DWIDTH 29 0
BBX 27 18 1 0
BITMAP
0FF0FF00
3FFFFFC0
3FFFFFC0
7FFFFFE0
7C1F83E0
781F03E0
F80F03E0
F80F07E0
F80FFFE0
F80FFFC0
F80FFF80
F80F0000
F81F8000
7C1F8000
7FFFFFE0
3FFFFFE0
1FFFFFE0
0FF1FF80
ENDCHAR
STARTCHAR 0154
ENCODING 340
SWIDTH 600 0
DWIDTH 20 0
BBX 18 31 2 0
BITMAP
007C00
007800
00F000
00E000
01C000
000000
000000
FFF800
FFFE00
FFFF00
FFFF00
F01F80
F00F80
F00F80
F00F80
F00F80
F00F80
F00F80
FFFF00
FFFF00
FFFE00
FFFC00
F07C00
F07C00
F03E00
F03E00
F03F00
F01F00
F01F80
F00F80
F00FC0
ENDCHAR
STARTCHAR 0155
ENCODING 341
SWIDTH 420 0
DWIDTH 14 0
BBX 11 24 2 0
BITMAP
01E0
03C0
0780
0700
0000
0000
F1E0
F7E0
FFE0
FFE0
FFE0
F800
F000
F000
F000
F000
F000
F000
F000
F000
F000
F000
F000
F000
ENDCHAR
STARTCHAR 0156
ENCODING 342
SWIDTH 600 0
DWIDTH 20 0
BBX 18 33 2 -10
BITMAP
FFF800
FFFE00
FFFF00
FFFF00
F01F80
F00F80
F00F80
F00F80
F00F80
F00F80
F00F80
FFFF00
FFFF00
FFFE00
FFFC00
F07C00
F07C00
F03E00
F03E00
F03F00
F01F00
F01F80
F00F80
F00FC0
000000
000000
03C000
03C000
03C000
03C000
01C000
01C000
038000
ENDCHAR
STARTCHAR 0157
ENCODING 343
SWIDTH 420 0
DWIDTH 14 0
BBX 12 27 1 -10
BITMAP
F0F0
FBF0
FFF0
FFF0
FFF0
FC00
F800
F800
F800
F800
F800
F800
F800
F800
F800
F800
F800
F800
0000
0000
7000
7800
7800
7800
3800
7000
7000
ENDCHAR
STARTCHAR 0158
ENCODING 344
SWIDTH 600 0
DWIDTH 20 0
BBX 18 31 2 0
BITMAP
1C3800
0E7000
07F000
07E000
03C000
000000
000000
FFF800
FFFE00
FFFF00
FFFF00
F01F80
F00F80
F00F80
F00F80
F00F80
F00F80
F00F80
FFFF00
FFFF00
FFFE00
FFFC00
F07C00
F07C00
F03E00
F03E00
F03F00
F01F00
F01F80
F00F80
F00FC0
ENDCHAR
STARTCHAR 0159
ENCODING 345
SWIDTH 420 0
DWIDTH 14 0
BBX 11 24 2 0
BITMAP
71C0
7B80
3F00
1F00
0000
0000
F1E0
F7E0
FFE0
FFE0
FFE0
F800
F000
F000
F000
F000
F000
F000
F000
F000
F000
F000
F000
F000
ENDCHAR
STARTCHAR 015A
ENCODING 346
SWIDTH 600 0
DWIDTH 20 0
BBX 17 31 2 0
BITMAP
003C00
007800
00F000
00E000
01C000
000000
000000
1FF800
7FFF00
7FFF00
FFFF00
FC0F00
F00000
F00000
F00000
F00000
F80000
FFF800
FFFE00
7FFF00
3FFF00
0FFF00
000F80
000F80
000F80
000F80
001F00
FFFF00
FFFF00
FFFE00
7FFC00
ENDCHAR
STARTCHAR 015B
ENCODING 347
SWIDTH 510 0
DWIDTH 17 0
BBX 15 24 1 0
BITMAP
0078
00F0
01E0
03C0
0000
0000
3FF8
7FFC
FFFC
FFFC
F800
F800
F800
FFF8
FFFC
7FFE
3FFE
003E
003E
003E
7FFE
7FFE
7FFC
3FF8
ENDCHAR
STARTCHAR 015C
ENCODING 348
SWIDTH 600 0
DWIDTH 20 0
BBX 17 31 2 0
BITMAP
01C000
03E000
07F000
0F7000
0E3800
000000
000000
1FF800
7FFF00
7FFF00
FFFF00
FC0F00
F00000
F00000
F00000
F00000
F80000
FFF800
FFFE00
7FFF00
3FFF00
0FFF00
000F80
000F80
000F80
000F80
001F00
FFFF00
FFFF00
FFFE00
7FFC00
ENDCHAR
STARTCHAR 015D
ENCODING 349
SWIDTH 510 0
DWIDTH 17 0
BBX 15 24 1 0
BITMAP
03C0
07E0
0EE0
1C70
0000
0000
3FF8
7FFC
FFFC
FFFC
F800
F800
F800
FFF8
FFFC
7FFE
3FFE
003E
003E
003E
7FFE
7FFE
7FFC
3FF8
ENDCHAR
STARTCHAR 015E
ENCODING 350
SWIDTH 600 0
DWIDTH 20 0
BBX 17 30 2 -6
BITMAP
1FF800
7FFF00
7FFF00
FFFF00
FC0F00
F00000
F00000
F00000
F00000
F80000
FFF800
FFFE00
7FFF00
3FFF00
0FFF00
000F80
000F80
000F80
000F80
001F00
FFFF00
FFFF00
FFFE00
7FFC00
000000
01C000
01C000
03C000
07C000
078000
ENDCHAR
STARTCHAR 015F
ENCODING 351
SWIDTH 510 0
DWIDTH 17 0
BBX 15 24 1 -6
BITMAP
3FF8
7FFC
FFFC
FFFC
F800
F800
F800
FFF8
FFFC
7FFE
3FFE
003E
003E
003E
7FFE
7FFE
7FFC
3FF8
0000
0E00
0E00
1E00
3E00
3C00
ENDCHAR
STARTCHAR 0160
ENCODING 352
SWIDTH 600 0
DWIDTH 20 0
BBX 17 31 2 0
BITMAP
1C3800
0E7800
07F000
07E000
03C000
000000
000000
1FF800
7FFF00
7FFF00
FFFF00
FC0F00
F00000
F00000
F00000
F00000
F80000
FFF800
FFFE00
7FFF00
3FFF00
0FFF00
000F80
000F80
000F80
000F80
001F00
FFFF00
FFFF00
FFFE00
7FFC00
ENDCHAR
STARTCHAR 0161
ENCODING 353
SWIDTH 510 0
DWIDTH 17 0
BBX 15 24 1 0
BITMAP
1C70
0EF0
07E0
07C0
0000
0000
3FF8
7FFC
FFFC
FFFC
F800
F800
F800
FFF8
FFFC
7FFE
3FFE
003E
003E
003E
7FFE
7FFE
7FFC
3FF8
ENDCHAR
STARTCHAR 0162
ENCODING 354
SWIDTH 600 0
DWIDTH 20 0
BBX 18 31 1 -7
BITMAP
FFFFC0
FFFFC0
FFFFC0
FFFFC0
01E000
01E000
01E000
01E000
01E000
01E000
01E000
01E000
01E000
01E000
01E000
01E000
01E000
01E000
01E000
01E000
01E000
01E000
01E000
01E000
000000
000000
070000
0F0000
3E0000
3E0000
300000
ENDCHAR
STARTCHAR 0163
ENCODING 355
SWIDTH 390 0
DWIDTH 13 0
BBX 12 29 0 -6
BITMAP
0F00
0F00
0F00
0F00
1F00
3FF0
FFF0
FFF0
FFF0
1F00
1F00
1F00
1F00
1F00
1F00
1F00
1F00
1F00
1F00
0FC0
0FF0
0FF0
03F0
0000
0E00
0E00
0E00
3E00
3C00
ENDCHAR
STARTCHAR 0164
ENCODING 356
SWIDTH 600 0
DWIDTH 20 0
BBX 18 31 1 0
BITMAP
0E1C00
073800
07F000
03F000
01E000
000000
000000
FFFFC0
FFFFC0
FFFFC0
FFFFC0
01E000
01E000
01E000
01E000
01E000
01E000
01E000
01E000
01E000
01E000
01E000
01E000
01E000
01E000
01E000
01E000
01E000
01E000
01E000
01E000
ENDCHAR
STARTCHAR 0165
ENCODING 357
SWIDTH 420 0
DWIDTH 14 0
BBX 13 27 0 0
BITMAP
0038
0038
0038
0038
0F38
0F38
0F38
0F00
1F00
3FF0
FFF0
FFF0
FFF0
1F00
1F00
1F00
1F00
1F00
1F00
1F00
1F00
1F00
1F00
0FC0
0FF0
0FF0
03F0
ENDCHAR
STARTCHAR 0166
ENCODING 358
SWIDTH 570 0
DWIDTH 19 0
BBX 18 24 1 0
BITMAP
FFFFC0
FFFFC0
FFFFC0
FFFFC0
03E000
03E000
03E000
03E000
03E000
03E000
1FFC00
1FFC00
03E000
03E000
03E000
03E000
03E000
03E000
03E000
03E000
03E000
03E000
03E000
03E000
ENDCHAR
STARTCHAR 0167
ENCODING 359
SWIDTH 360 0
DWIDTH 12 0
BBX 12 23 0 0
BITMAP
0F00
0F00
0F00
0F00
1F00
3FF0
FFF0
FFF0
FFF0
1F00
1F00
1F00
7FE0
7FE0
1F00
1F00
1F00
1F00
1F00
0FC0
0FF0
0FF0
03F0
ENDCHAR
STARTCHAR 0168
ENCODING 360
SWIDTH 660 0
DWIDTH 22 0
BBX 19 30 2 0
BITMAP
038600
0FFE00
0FFC00
0C7800
000000
000000
F803E0
F803E0
F803E0
F803E0
F803E0
F803E0
F803E0
F803E0
F803E0
F803E0
F803E0
F803E0
F803E0
F803E0
F803E0
F803E0
F803C0
F807C0
FC07C0
7E1FC0
7FFF80
3FFF80
1FFF00
0FFC00
ENDCHAR
STARTCHAR 0169
ENCODING 361
SWIDTH 540 0
DWIDTH 18 0
BBX 16 24 1 0
BITMAP
0F08
1FFC
3FF8
10F0
0000
0000
F81F
F81F
F81F
F81F
F81F
F81F
F81F
F81F
F81F
F81F
F81F
F81F
F81F
F83F
7FFF
7FFF
3FDF
1F0F
ENDCHAR
STARTCHAR 016A
ENCODING 362
SWIDTH 660 0
DWIDTH 22 0
BBX 19 29 2 0
BITMAP
0FFC00
0FFC00
0FFC00
000000
000000
F803E0
F803E0
F803E0
F803E0
F803E0
F803E0
F803E0
F803E0
F803E0
F803E0
F803E0
F803E0
F803E0
F803E0
F803E0
F803E0
F803C0
F807C0
FC07C0
7E1FC0
7FFF80
3FFF80
1FFF00
0FFC00
ENDCHAR
STARTCHAR 016B
ENCODING 363
SWIDTH 540 0
DWIDTH 18 0
BBX 16 23 1 0
BITMAP
1FF8
1FF8
1FF8
0000
0000
F81F
F81F
F81F
F81F
F81F
F81F
F81F
F81F
F81F
F81F
F81F
F81F
F81F
F83F
7FFF
7FFF
3FDF
1F0F
ENDCHAR
STARTCHAR 016C
ENCODING 364
SWIDTH 660 0
DWIDTH 22 0
BBX 19 30 2 0
BITMAP
061800
031800
03F000
01E000
000000
000000
F803E0
F803E0
F803E0
F803E0
F803E0
F803E0
F803E0
F803E0
F803E0
F803E0
F803E0
F803E0
F803E0
F803E0
F803E0
F803E0
F803C0
F807C0
FC07C0
7E1FC0
7FFF80
3FFF80
1FFF00
0FFC00
ENDCHAR
STARTCHAR 016D
ENCODING 365
SWIDTH 540 0
DWIDTH 18 0
BBX 16 24 1 0
BITMAP
0C30
0630
07E0
03C0
0000
0000
F81F
F81F
F81F
F81F
F81F
F81F
F81F
F81F
F81F
F81F
F81F
F81F
F81F
F83F
7FFF
7FFF
3FDF
1F0F
ENDCHAR
STARTCHAR 016E
ENCODING 366
SWIDTH 660 0
DWIDTH 22 0
BBX 19 33 2 0
BITMAP
00E000
01F000
033800
031800
033800
01F000
00E000
000000
000000
F803E0
F803E0
F803E0
F803E0
F803E0
F803E0
F803E0
F803E0
F803E0
F803E0
F803E0
F803E0
F803E0
F803E0
F803E0
F803E0
F803C0
F807C0
FC07C0
7E1FC0
7FFF80
3FFF80
1FFF00
0FFC00
ENDCHAR
STARTCHAR 016F
ENCODING 367
SWIDTH 540 0
DWIDTH 18 0
BBX 16 27 1 0
BITMAP
03C0
07E0
0660
0660
0660
07E0
03C0
0000
0000
F81F
F81F
F81F
F81F
F81F
F81F
F81F
F81F
F81F
F81F
F81F
F81F
F81F
F83F
7FFF
7FFF
3FDF
1F0F
ENDCHAR
STARTCHAR 0170
ENCODING 368
SWIDTH 660 0
DWIDTH 22 0
BBX 19 31 2 0
BITMAP
00F780
01E700
01CF00
039E00
079C00
000000
000000
F803E0
F803E0
F803E0
F803E0
F803E0
F803E0
F803E0
F803E0
F803E0
F803E0
F803E0
F803E0
F803E0
F803E0
F803E0
F803E0
F803C0
F807C0
FC07C0
7E1FC0
7FFF80
3FFF80
1FFF00
0FFC00
ENDCHAR
STARTCHAR 0171
ENCODING 369
SWIDTH 540 0
DWIDTH 18 0
BBX 16 24 1 0
BITMAP
01EF
03DE
07BC
0F38
0000
0000
F81F
F81F
F81F
F81F
F81F
F81F
F81F
F81F
F81F
F81F
F81F
F81F
F81F
F83F
7FFF
7FFF
3FDF
1F0F
ENDCHAR
STARTCHAR 0172
ENCODING 370
SWIDTH 660 0
DWIDTH 22 0
BBX 19 30 2 -7
BITMAP
F803E0
F803E0
F803E0
F803E0
F803E0
F803E0
F803E0
F803E0
F803E0
F803E0
F803E0
F803E0
F803E0
F803E0
F803E0
F803E0
F803C0
F807C0
FC07C0
7E1FC0
7FFF80
3FFF80
1FFF00
07FC00
01C000
038000
038000
03E000
01E000
00E000
ENDCHAR
STARTCHAR 0173
ENCODING 371
SWIDTH 540 0
DWIDTH 18 0
BBX 16 24 1 -7
BITMAP
F81F
F81F
F81F
F81F
F81F
F81F
F81F
F81F
F81F
F81F
F81F
F81F
F81F
F83F
7FFF
7FFF
3FDF
1F0F
000C
0018
0018
001E
001E
000E
ENDCHAR
STARTCHAR 0174
ENCODING 372
SWIDTH 990 0
DWIDTH 33 0
BBX 31 31 1 0
BITMAP
0003C000
0003E000
0007E000
000F7000
001E3800
00000000
00000000
F801F03E
7C01E03E
7C03E03E
7C03E03C
3C03E07C
3E03C07C
3E07C07C
1E07E078
1F07E0F8
1F07E0F8
1F0FF0F8
0F8FF0F0
0F8FF1F0
0F8FF9F0
079FF9E0
07DFF9E0
07DE7FE0
03DE7FE0
03FE7FC0
03FC3FC0
01FC3FC0
01FC1F80
01FC1F80
00F81F80
ENDCHAR
STARTCHAR 0175
ENCODING 373
SWIDTH 840 0
DWIDTH 28 0
BBX 26 25 1 0
BITMAP
001E0000
001F0000
003F0000
00738000
00E1C000
00000000
00000000
F81F07C0
F81E07C0
F81E0F80
783E0F80
7C3E0F80
7C3E1F00
3C3E1F00
3E7F1F00
3E7F1E00
3E7F3E00
1E7FBE00
1FFFBC00
1FF7FC00
0FF7FC00
0FF3F800
0FE3F800
07E3F800
07E1F000
ENDCHAR
STARTCHAR 0176
ENCODING 374
SWIDTH 660 0
DWIDTH 22 0
BBX 20 31 1 0
BITMAP
00F000
00F800
01F800
039C00
070E00
000000
000000
F801F0
7C03F0
7C03E0
3E03E0
3E07C0
1E07C0
1F0F80
1F0F80
0F9F00
0F9F00
07FE00
07FE00
03FC00
03FC00
01F800
01F800
01F000
00F000
00F000
00F000
00F000
00F000
00F000
00F000
ENDCHAR
STARTCHAR 0177
ENCODING 375
SWIDTH 570 0
DWIDTH 19 0
BBX 18 33 1 -9
BITMAP
01E000
03F000
077800
0E3800
000000
000000
F807C0
F80F80
F80F80
F80F80
7C0F00
7C1F00
7C1F00
7C1F00
3E1E00
3E3E00
3E3E00
1E3E00
1F3C00
1F7C00
1FFC00
0FFC00
07F800
01F800
00F800
00F800
01F000
01F000
01F000
01E000
03E000
03C000
038000
ENDCHAR
STARTCHAR 0178
ENCODING 376
SWIDTH 660 0
DWIDTH 22 0
BBX 20 30 1 0
BITMAP
060700
0F0700
0F0700
060700
000000
000000
F801F0
7C03F0
7C03E0
3E03E0
3E07C0
1E07C0
1F0F80
1F0F80
0F9F00
0F9F00
07FE00
07FE00
03FC00
03FC00
01F800
01F800
00F000
00F000
00F000
00F000
00F000
00F000
00F000
00F000
ENDCHAR
STARTCHAR 0179
ENCODING 377
SWIDTH 570 0
DWIDTH 19 0
BBX 17 31 1 0
BITMAP
003C00
007800
00F000
00E000
01C000
000000
000000
FFFF80
FFFF80
FFFF80
FFFF80
001F80
003F00
007E00
007C00
00FC00
01F800
01F000
03F000
07E000
0FC000
0FC000
1F8000
3F0000
7F0000
7E0000
FC0000
FFFF80
FFFF80
FFFF80
FFFF80
ENDCHAR
STARTCHAR 017A
ENCODING 378
SWIDTH 480 0
DWIDTH 16 0
BBX 14 24 1 0
BITMAP
00F0
01E0
01C0
0380
0000
0000
FFFC
FFFC
FFFC
FFFC
00FC
01F8
03F0
07E0
07E0
0FC0
1F80
3F00
3F00
7E00
FFFC
FFFC
FFFC
FFFC
ENDCHAR
STARTCHAR 017B
ENCODING 379
SWIDTH 570 0
DWIDTH 19 0
BBX 17 30 1 0
BITMAP
03C000
03C000
03C000
03C000
000000
000000
FFFF80
FFFF80
FFFF80
FFFF80
001F80
003F00
007E00
007C00
00FC00
01F800
01F000
03F000
07E000
0FC000
0FC000
1F8000
3F0000
7F0000
7E0000
FC0000
FFFF80
FFFF80
FFFF80
FFFF80
ENDCHAR
STARTCHAR 017C
ENCODING 380
SWIDTH 480 0
DWIDTH 16 0
BBX 14 24 1 0
BITMAP
0780
0780
0780
0780
0000
0000
FFFC
FFFC
FFFC
FFFC
00FC
01F8
03F0
07E0
07E0
0FC0
1F80
3F00
3F00
7E00
FFFC
FFFC
FFFC
FFFC
ENDCHAR
STARTCHAR 017D
ENCODING 381
SWIDTH 570 0
DWIDTH 19 0
BBX 17 31 1 0
BITMAP
1C3800
0E7800
07F000
03E000
03C000
000000
000000
FFFF80
FFFF80
FFFF80
FFFF80
001F80
003F00
007E00
007C00
00FC00
01F800
01F000
03F000
07E000
0FC000
0FC000
1F8000
3F0000
7F0000
7E0000
FC0000
FFFF80
FFFF80
FFFF80
FFFF80
ENDCHAR
STARTCHAR 017E
ENCODING 382
SWIDTH 480 0
DWIDTH 16 0
BBX 14 24 1 0
BITMAP
38F0
1FE0
0FC0
0780
0000
0000
FFFC
FFFC
FFFC
FFFC
00FC
01F8
03F0
07E0
07E0
0FC0
1F80
3F00
3F00
7E00
FFFC
FFFC
FFFC
FFFC
ENDCHAR
STARTCHAR 0192
ENCODING 402
SWIDTH 600 0
DWIDTH 20 0
BBX 18 34 1 -7
BITMAP
000700
001FC0
003FC0
003FC0
007C00
007C00
00F800
00F800
00F800
00F000
00F000
07FF00
0FFF00
0FFF00
0FFF00
01E000
01E000
03E000
03E000
03E000
03E000
03E000
03C000
03C000
07C000
07C000
07C000
078000
0F8000
1F8000
FF0000
FF0000
FE0000
380000
ENDCHAR
STARTCHAR 02C6
ENCODING 710
SWIDTH 390 0
DWIDTH 13 0
BBX 10 5 1 17
BITMAP
1F00
1F00
3F80
73C0
E1C0
ENDCHAR
STARTCHAR 02C7
ENCODING 711
SWIDTH 390 0
DWIDTH 13 0
BBX 9 5 2 17
BITMAP
E380
F700
7F00
3E00
1C00
ENDCHAR
STARTCHAR 02D8
ENCODING 728
SWIDTH 300 0
DWIDTH 10 0
BBX 8 4 1 18
BITMAP
C3
E3
7E
3C
ENDCHAR
STARTCHAR 02D9
ENCODING 729
SWIDTH 180 0
DWIDTH 6 0
BBX 4 4 1 17
BITMAP
F0
F0
F0
F0
ENDCHAR
STARTCHAR 02DA
ENCODING 730
SWIDTH 270 0
DWIDTH 9 0
BBX 7 7 1 17
BITMAP
38
7C
E6
C6
E6
7C
38
ENDCHAR
STARTCHAR 02DB
ENCODING 731
SWIDTH 210 0
DWIDTH 7 0
BBX 5 6 1 -7
BITMAP
30
60
E0
F8
78
38
ENDCHAR
STARTCHAR 02DC
ENCODING 732
SWIDTH 420 0
DWIDTH 14 0
BBX 12 4 1 18
BITMAP
3C20
7FF0
FFE0
43C0
ENDCHAR
STARTCHAR 02DD
ENCODING 733
SWIDTH 390 0
DWIDTH 13 0
BBX 11 5 1 17
BITMAP
3DE0
39C0
73C0
F780
E700
ENDCHAR
STARTCHAR 0338
ENCODING 824
SWIDTH 630 0
DWIDTH 21 0
BBX 17 24 2 0
BITMAP
1FFC00
3FFF00
7FFF00
FFFF80
FC1F80
F81F80
F03F80
F07F80
F06780
F0E780
F0C780
F1C780
F18780
F38780
F30780
F70780
FE0780
FE0780
FC0F80
FC1F80
FFFF80
7FFF00
7FFF00
1FFC00
ENDCHAR
STARTCHAR 03A9
ENCODING 937
SWIDTH 750 0
DWIDTH 25 0
BBX 22 24 2 0
BITMAP
03FE00
0FFF80
1FFFE0
3FFFE0
7F07F0
7C01F8
F800F8
F800F8
F80078
F0007C
F0007C
F0007C
F0007C
F0007C
F00078
F80078
7800F8
7C00F0
3E01F0
1F03E0
FF07FC
FF07FC
FF07FC
FF07FC
ENDCHAR
STARTCHAR 03C0
ENCODING 960
SWIDTH 660 0
DWIDTH 22 0
BBX 21 18 0 0
BITMAP
FFFFE0
FFFFE0
FFFFE0
FFFFE0
1F0F00
1F0F00
1F0F00
1F0F00
1F0F00
1F0F00
1F0F00
1F0F00
1F0F00
1F0F80
1F0FF8
1F0FF8
1F07F8
1F03F0
ENDCHAR
STARTCHAR 1E02
ENCODING 7682
SWIDTH 600 0
DWIDTH 20 0
BBX 17 30 2 0
BITMAP
03C000
03C000
03C000
03C000
000000
000000
FFF800
FFFE00
FFFF00
FFFF00
F81F80
F80F80
F80F80
F80F80
F80F80
FFFF00
FFFE00
FFFE00
FFFF00
F80F80
F80F80
F80780
F80780
F80780
F80F80
F81F80
FFFF80
FFFF00
FFFE00
FFFC00
ENDCHAR
STARTCHAR 1E03
ENCODING 7683
SWIDTH 570 0
DWIDTH 19 0
BBX 16 33 1 0
BITMAP
7800
7800
7800
7800
0000
0000
F800
F800
F800
F800
F800
F800
F800
F800
F800
F9F8
FFFC
FFFE
FFFE
F81F
F81F
F81F
F81F
F81F
F81F
F81F
F81F
F81F
FC3F
FFFE
FFFE
FBFC
F0F8
ENDCHAR
STARTCHAR 1E0A
ENCODING 7690
SWIDTH 660 0
DWIDTH 22 0
BBX 19 30 2 0
BITMAP
01C000
01C000
01C000
01C000
000000
000000
FFF800
FFFE00
FFFF00
FFFF80
F80FC0
F807C0
F807C0
F803C0
F803E0
F803E0
F803E0
F803E0
F803E0
F803E0
F803E0
F803E0
F803C0
F807C0
F807C0
F81FC0
FFFF80
FFFF00
FFFE00
FFF800
ENDCHAR
STARTCHAR 1E0B
ENCODING 7691
SWIDTH 570 0
DWIDTH 19 0
BBX 16 32 1 0
BITMAP
000F
000F
000F
000F
0000
0000
001F
001F
001F
001F
001F
001F
001F
001F
1F9F
3FFF
7FFF
7FFF
7C1F
F81F
F81F
F81F
F81F
F81F
F81F
F81F
F81F
7C3F
7FFF
7FFF
3FEF
1F8F
ENDCHAR
STARTCHAR 1E1E
ENCODING 7710
SWIDTH 570 0
DWIDTH 19 0
BBX 16 30 2 0
BITMAP
01C0
03C0
03C0
01C0
0000
0000
1FFF
7FFF
FFFF
FFFF
FC00
F800
F800
F800
F800
F800
FFFC
FFFC
FFFC
FFFC
F800
F800
F800
F800
F800
F800
F800
F800
F800
F800
ENDCHAR
STARTCHAR 1E1F
ENCODING 7711
SWIDTH 390 0
DWIDTH 13 0
BBX 13 33 0 0
BITMAP
03C0
03C0
03C0
03C0
0000
0000
0080
07F8
0FF8
0FF8
1F00
1F00
1F00
1F00
1F00
3FF0
FFF0
FFF0
FFF0
1F00
1F00
1F00
1F00
1F00
1F00
1F00
1F00
1F00
1F00
1F00
1F00
1F00
1F00
ENDCHAR
STARTCHAR 1E40
ENCODING 7744
SWIDTH 840 0
DWIDTH 28 0
BBX 26 30 1 0
BITMAP
001E0000
001E0000
001E0000
001E0000
00000000
00000000
3F807F00
3F807F00
3FC07F00
3FC0FF00
3FC0FF00
3FC0FF00
3FE0FF00
3FE1FF00
3DE1FF00
3DE1EF80
3DF1EF80
3DF3EF80
7CF3EF80
7CF3CF80
7CFBCF80
7CFFCF80
7C7FCF80
7C7F8780
787F8780
787F8780
783F87C0
783F07C0
783F07C0
F83F07C0
ENDCHAR
STARTCHAR 1E41
ENCODING 7745
SWIDTH 870 0
DWIDTH 29 0
BBX 26 24 2 0
BITMAP
001E0000
001E0000
001E0000
001E0000
00000000
00000000
E1F07E00
F7FDFF80
FFFFFF80
FFFFFFC0
F83F07C0
F03E07C0
F03E07C0
F03E07C0
F03E07C0
F03E07C0
F03E07C0
F03E07C0
F03E07C0
F03E07C0
F03E07C0
F03E07C0
F03E07C0
F03E07C0
ENDCHAR
STARTCHAR 1E56
ENCODING 7766
SWIDTH 600 0
DWIDTH 20 0
BBX 17 30 2 0
BITMAP
078000
078000
078000
078000
000000
000000
FFF800
FFFE00
FFFF00
FFFF00
F01F80
F00F80
F00F80
F00F80
F00F80
F00F80
F01F80
FFFF00
FFFF00
FFFE00
FFFC00
F00000
F00000
F00000
F00000
F00000
F00000
F00000
F00000
F00000
ENDCHAR
STARTCHAR 1E57
ENCODING 7767
SWIDTH 570 0
DWIDTH 19 0
BBX 15 33 2 -9
BITMAP
03C0
03C0
03C0
03C0
0000
0000
F1F0
F7F8
FFFC
FFFC
F83E
F03E
F03E
F01E
F01E
F01E
F01E
F03E
F03E
F03E
FFFE
FFFC
FFF8
F3F0
F000
F000
F000
F000
F000
F000
F000
F000
F000
ENDCHAR
STARTCHAR 1E60
ENCODING 7776
SWIDTH 600 0
DWIDTH 20 0
BBX 17 30 2 0
BITMAP
03C000
03C000
03C000
03C000
000000
000000
1FF800
7FFF00
7FFF00
FFFF00
FC0F00
F00000
F00000
F00000
F00000
F80000
FFF800
FFFE00
7FFF00
3FFF00
0FFF00
000F80
000F80
000F80
000F80
001F00
FFFF00
FFFF00
FFFE00
7FFC00
ENDCHAR
STARTCHAR 1E61
ENCODING 7777
SWIDTH 510 0
DWIDTH 17 0
BBX 15 24 1 0
BITMAP
03C0
03C0
03C0
03C0
0000
0000
3FF8
7FFC
FFFC
FFFC
F800
F800
F800
FFF8
FFFC
7FFE
3FFE
003E
003E
003E
7FFE
7FFE
7FFC
3FF8
ENDCHAR
STARTCHAR 1E6A
ENCODING 7786
SWIDTH 600 0
DWIDTH 20 0
BBX 18 30 1 0
BITMAP
01E000
01E000
01E000
01E000
000000
000000
FFFFC0
FFFFC0
FFFFC0
FFFFC0
01E000
01E000
01E000
01E000
01E000
01E000
01E000
01E000
01E000
01E000
01E000
01E000
01E000
01E000
01E000
01E000
01E000
01E000
01E000
01E000
ENDCHAR
STARTCHAR 1E6B
ENCODING 7787
SWIDTH 390 0
DWIDTH 13 0
BBX 12 29 0 0
BITMAP
0F00
0F00
0F00
0F00
0000
0000
0F00
0F00
0F00
0F00
1F00
3FF0
FFF0
FFF0
FFF0
1F00
1F00
1F00
1F00
1F00
1F00
1F00
1F00
1F00
1F00
0FC0
0FF0
0FF0
03F0
ENDCHAR
STARTCHAR 1E80
ENCODING 7808
SWIDTH 990 0
DWIDTH 33 0
BBX 31 31 1 0
BITMAP
001E0000
001E0000
000F0000
00078000
00038000
00000000
00000000
F801F03E
7C01E03E
7C03E03E
7C03E03C
3C03E07C
3E03C07C
3E07C07C
1E07E078
1F07E0F8
1F07E0F8
1F0FF0F8
0F8FF0F0
0F8FF1F0
0F8FF9F0
079FF9E0
07DFF9E0
07DE7FE0
03DE7FE0
03FE7FC0
03FC3FC0
01FC3FC0
01FC1F80
01FC1F80
00F81F80
ENDCHAR
STARTCHAR 1E81
ENCODING 7809
SWIDTH 840 0
DWIDTH 28 0
BBX 26 24 1 0
BITMAP
00F00000
00700000
00380000
001C0000
00000000
00000000
F81F07C0
F81E07C0
F81E0F80
783E0F80
7C3E0F80
7C3E1F00
3C3E1F00
3E7F1F00
3E7F1E00
3E7F3E00
1E7FBE00
1FFFBC00
1FF7FC00
0FF7FC00
0FF3F800
0FE3F800
07E3F800
07E1F000
ENDCHAR
STARTCHAR 1E82
ENCODING 7810
SWIDTH 990 0
DWIDTH 33 0
BBX 31 31 1 0
BITMAP
00007800
00007000
0000F000
0001E000
0001C000
00000000
00000000
F801F03E
7C01E03E
7C03E03E
7C03E03C
3C03E07C
3E03C07C
3E07C07C
1E07E078
1F07E0F8
1F07E0F8
1F0FF0F8
0F8FF0F0
0F8FF1F0
0F8FF9F0
079FF9E0
07DFF9E0
07DE7FE0
03DE7FE0
03FE7FC0
03FC3FC0
01FC3FC0
01FC1F80
01FC1F80
00F81F80
ENDCHAR
STARTCHAR 1E83
ENCODING 7811
SWIDTH 840 0
DWIDTH 28 0
BBX 26 24 1 0
BITMAP
0003C000
00078000
00070000
000E0000
00000000
00000000
F81F07C0
F81E07C0
F81E0F80
783E0F80
7C3E0F80
7C3E1F00
3C3E1F00
3E7F1F00
3E7F1E00
3E7F3E00
1E7FBE00
1FFFBC00
1FF7FC00
0FF7FC00
0FF3F800
0FE3F800
07E3F800
07E1F000
ENDCHAR
STARTCHAR 1E84
ENCODING 7812
SWIDTH 990 0
DWIDTH 33 0
BBX 31 30 1 0
BITMAP
00381800
00383C00
00383C00
00381800
00000000
00000000
F801F03E
7C01E03E
7C03E03E
7C03E03C
3C03E07C
3E03C07C
3E07C07C
1E07E078
1F07E0F8
1F07E0F8
1F0FF0F8
0F8FF0F0
0F8FF1F0
0F8FF9F0
079FF9E0
07DFF9E0
07DE7FE0
03DE7FE0
03FE7FC0
03FC3FC0
01FC3FC0
01FC1F80
01FC1F80
00F81F80
ENDCHAR
STARTCHAR 1E85
ENCODING 7813
SWIDTH 840 0
DWIDTH 28 0
BBX 26 24 1 0
BITMAP
01C0C000
01E1E000
01E1E000
01C0C000
00000000
00000000
F81F07C0
F81E07C0
F81E0F80
783E0F80
7C3E0F80
7C3E1F00
3C3E1F00
3E7F1F00
3E7F1E00
3E7F3E00
1E7FBE00
1FFFBC00
1FF7FC00
0FF7FC00
0FF3F800
0FE3F800
07E3F800
07E1F000
ENDCHAR
STARTCHAR 1EF2
ENCODING 7922
SWIDTH 660 0
DWIDTH 22 0
BBX 20 31 1 0
BITMAP
078000
03C000
01C000
01E000
00F000
000000
000000
F801F0
7C03F0
7C03E0
3E03E0
3E07C0
1E07C0
1F0F80
1F0F80
0F9F00
0F9F00
07FE00
07FE00
03FC00
03FC00
01F800
01F800
01F000
00F000
00F000
00F000
00F000
00F000
00F000
00F000
ENDCHAR
STARTCHAR 1EF3
ENCODING 7923
SWIDTH 570 0
DWIDTH 19 0
BBX 18 33 1 -9
BITMAP
0F0000
070000
038000
01C000
000000
000000
F807C0
F80F80
F80F80
F80F80
7C0F00
7C1F00
7C1F00
7C1F00
3E1E00
3E3E00
3E3E00
1E3E00
1F3C00
1F7C00
1FFC00
0FFC00
07F800
01F800
00F800
00F800
01F000
01F000
01F000
01E000
03E000
03C000
038000
ENDCHAR
STARTCHAR 2013
ENCODING 8211
SWIDTH 510 0
DWIDTH 17 0
BBX 15 4 1 8
BITMAP
FFFE
FFFE
FFFE
FFFE
ENDCHAR
STARTCHAR 2014
ENCODING 8212
SWIDTH 750 0
DWIDTH 25 0
BBX 23 4 1 8
BITMAP
FFFFFE
FFFFFE
FFFFFE
FFFFFE
ENDCHAR
STARTCHAR 2018
ENCODING 8216
SWIDTH 270 0
DWIDTH 9 0
BBX 5 9 2 17
BITMAP
70
F0
E0
E0
F8
F8
F8
F8
70
ENDCHAR
STARTCHAR 2019
ENCODING 8217
SWIDTH 270 0
DWIDTH 9 0
BBX 5 9 2 15
BITMAP
70
F8
F8
F8
F8
78
78
F0
E0
ENDCHAR
STARTCHAR 201A
ENCODING 8218
SWIDTH 270 0
DWIDTH 9 0
BBX 5 9 2 -5
BITMAP
F0
F8
F8
F8
F8
78
78
F0
E0
ENDCHAR
STARTCHAR 201C
ENCODING 8220
SWIDTH 420 0
DWIDTH 14 0
BBX 10 9 2 17
BITMAP
71C0
F3C0
E380
E380
F3C0
F3C0
F3C0
F3C0
F3C0
ENDCHAR
STARTCHAR 201D
ENCODING 8221
SWIDTH 420 0
DWIDTH 14 0
BBX 10 9 2 15
BITMAP
F3C0
F3C0
F3C0
F3C0
F3C0
71C0
71C0
F3C0
E380
ENDCHAR
STARTCHAR 201E
ENCODING 8222
SWIDTH 420 0
DWIDTH 14 0
BBX 10 9 2 -5
BITMAP
F3C0
F3C0
F3C0
F3C0
F3C0
71C0
71C0
F3C0
E380
ENDCHAR
STARTCHAR 2020
ENCODING 8224
SWIDTH 450 0
DWIDTH 15 0
BBX 14 29 0 -3
BITMAP
0780
0780
07C0
07C0
07C0
07C0
07C0
FFFC
FFFC
FFFC
FFFC
07C0
07C0
07C0
07C0
07C0
07C0
07C0
07C0
07C0
07C0
07C0
0780
0780
0780
0780
0780
0780
0780
ENDCHAR
STARTCHAR 2021
ENCODING 8225
SWIDTH 450 0
DWIDTH 15 0
BBX 14 28 0 -2
BITMAP
0780
0780
07C0
07C0
07C0
07C0
07C0
FFFC
FFFC
FFFC
FFFC
07C0
07C0
07C0
07C0
07C0
07C0
FFFC
FFFC
FFFC
FFFC
07C0
0780
0780
0780
0780
0780
0780
ENDCHAR
STARTCHAR 2022
ENCODING 8226
SWIDTH 300 0
DWIDTH 10 0
BBX 6 6 2 10
BITMAP
FC
FC
FC
FC
FC
FC
ENDCHAR
STARTCHAR 2026
ENCODING 8230
SWIDTH 810 0
DWIDTH 27 0
BBX 6 5 10 0
BITMAP
FC
FC
FC
FC
FC
ENDCHAR
STARTCHAR 2030
ENCODING 8240
SWIDTH 1380 0
DWIDTH 46 0
BBX 44 24 1 0
BITMAP
3FC00F000000
7FF00E000000
FFF01E000000
F0F01C000000
E07038000000
E07078000000
E07070000000
E070F0000000
F070E0000000
FFF1C0000000
7FF3C0000000
7FE38FF07FC0
0007BFF8FFE0
000F3FFCFFF0
000E3C3CF0F0
001E381CE070
001C381CE070
0038381CE070
0078381CE070
0070381CE070
00F03C3CF0F0
00E03FFCFFF0
01C03FF8FFE0
03C00FF07FC0
ENDCHAR
STARTCHAR 2039
ENCODING 8249
SWIDTH 360 0
DWIDTH 12 0
BBX 9 13 2 6
BITMAP
0600
0F00
1F00
3E00
7C00
F800
F800
7C00
3E00
1F00
0F80
0700
0200
ENDCHAR
STARTCHAR 203A
ENCODING 8250
SWIDTH 360 0
DWIDTH 12 0
BBX 9 13 1 6
BITMAP
3000
7800
7C00
3E00
1F00
0F80
0F80
1F00
3E00
7C00
F800
7000
2000
ENDCHAR
STARTCHAR 2044
ENCODING 8260
SWIDTH 330 0
DWIDTH 11 0
BBX 15 25 -2 0
BITMAP
001E
001C
003C
0038
0078
0070
00F0
00E0
00E0
01C0
01C0
03C0
0380
0780
0700
0F00
0E00
1E00
1C00
3C00
3800
7800
7000
F000
E000
ENDCHAR
STARTCHAR 2070
ENCODING 8304
SWIDTH 450 0
DWIDTH 15 0
BBX 12 15 2 13
BITMAP
7FE0
FFF0
FFF0
E0F0
E0F0
E0F0
E0F0
E0F0
E0F0
E0F0
E0F0
E0F0
FFF0
FFF0
7FE0
ENDCHAR
STARTCHAR 2074
ENCODING 8308
SWIDTH 420 0
DWIDTH 14 0
BBX 14 16 0 13
BITMAP
03C0
0780
0780
0F00
0F00
1E70
1E70
3C70
3C70
7870
7FFC
FFFC
7FFC
0070
0070
0070
ENDCHAR
STARTCHAR 2075
ENCODING 8309
SWIDTH 420 0
DWIDTH 14 0
BBX 12 15 1 13
BITMAP
7FE0
7FE0
7FE0
7000
7000
7FC0
7FE0
FFF0
F0F0
00F0
00F0
00F0
FFF0
FFE0
FFE0
ENDCHAR
STARTCHAR 2076
ENCODING 8310
SWIDTH 450 0
DWIDTH 15 0
BBX 13 16 1 13
BITMAP
0600
3FF0
7FF0
7FF0
7800
7000
F000
FFE0
FFF0
FFF0
F078
7078
7878
7FF8
7FF0
3FE0
ENDCHAR
STARTCHAR 2077
ENCODING 8311
SWIDTH 390 0
DWIDTH 13 0
BBX 13 16 0 12
BITMAP
FFF0
FFF8
FFF0
00F0
00E0
01E0
01E0
03C0
03C0
0780
0780
0780
0F00
0F00
1E00
1E00
ENDCHAR
STARTCHAR 2078
ENCODING 8312
SWIDTH 450 0
DWIDTH 15 0
BBX 12 16 2 13
BITMAP
7FC0
FFE0
FFF0
F0F0
E0F0
E0F0
F0F0
FFE0
7FE0
FFF0
E0F0
E0F0
E0F0
FFF0
FFE0
7FE0
ENDCHAR
STARTCHAR 2079
ENCODING 8313
SWIDTH 450 0
DWIDTH 15 0
BBX 12 17 1 12
BITMAP
3FC0
7FE0
FFE0
F1F0
F0F0
F070
F070
FFF0
7FF0
7FF0
0070
0070
00F0
7FF0
7FE0
7FE0
0E00
ENDCHAR
STARTCHAR 2080
ENCODING 8320
SWIDTH 450 0
DWIDTH 15 0
BBX 12 15 2 -6
BITMAP
7FE0
FFF0
FFF0
E0F0
E0F0
E0F0
E0F0
E0F0
E0F0
E0F0
E0F0
E0F0
FFF0
FFF0
7FE0
ENDCHAR
STARTCHAR 2081
ENCODING 8321
SWIDTH 270 0
DWIDTH 9 0
BBX 7 16 0 -7
BITMAP
3E
FE
FE
8E
0E
0E
0E
0E
0E
0E
0E
0E
0E
0E
0E
0E
ENDCHAR
STARTCHAR 2082
ENCODING 8322
SWIDTH 390 0
DWIDTH 13 0
BBX 11 15 1 -5
BITMAP
FFC0
FFE0
FFE0
01E0
00E0
00E0
01E0
03C0
07C0
0F80
3E00
7C00
FFE0
FFE0
FFE0
ENDCHAR
STARTCHAR 2083
ENCODING 8323
SWIDTH 420 0
DWIDTH 14 0
BBX 11 17 1 -7
BITMAP
3800
FFC0
FFE0
FFE0
01E0
00E0
01E0
7FE0
7FC0
7FC0
03E0
00E0
00E0
03E0
FFE0
FFE0
FF80
ENDCHAR
STARTCHAR 2084
ENCODING 8324
SWIDTH 420 0
DWIDTH 14 0
BBX 13 16 1 -7
BITMAP
0700
0F00
0E00
1E00
1CE0
3CE0
38E0
78E0
78E0
FFF8
FFF8
FFF8
00E0
00E0
00E0
00E0
ENDCHAR
STARTCHAR 2085
ENCODING 8325
SWIDTH 420 0
DWIDTH 14 0
BBX 12 16 1 -7
BITMAP
7FE0
7FE0
7FE0
7000
7000
7FC0
7FE0
FFF0
F0F0
00F0
00F0
00F0
F9F0
FFF0
FFE0
3FC0
ENDCHAR
STARTCHAR 2086
ENCODING 8326
SWIDTH 450 0
DWIDTH 15 0
BBX 13 15 1 -5
BITMAP
3FF0
7FF0
7FF0
7800
7000
F000
FFE0
FFF0
FFF0
F078
7078
7878
7FF8
7FF0
3FE0
ENDCHAR
STARTCHAR 2087
ENCODING 8327
SWIDTH 390 0
DWIDTH 13 0
BBX 13 16 0 -7
BITMAP
FFF0
FFF8
FFF0
00F0
00E0
01E0
01E0
03C0
03C0
0780
0780
0780
0F00
0F00
1E00
1E00
ENDCHAR
STARTCHAR 2088
ENCODING 8328
SWIDTH 450 0
DWIDTH 15 0
BBX 12 16 2 -7
BITMAP
7FE0
FFE0
FFF0
E0F0
E0F0
E0F0
FFE0
7FE0
FFF0
E0F0
E0F0
E0F0
F0F0
FFF0
FFE0
7FC0
ENDCHAR
STARTCHAR 2089
ENCODING 8329
SWIDTH 450 0
DWIDTH 15 0
BBX 12 16 1 -7
BITMAP
7FC0
7FE0
FFF0
F0F0
F070
F070
FFF0
7FF0
7FF0
0070
0070
00F0
7FF0
7FE0
7FC0
0200
ENDCHAR
STARTCHAR 20AC
ENCODING 8364
SWIDTH 630 0
DWIDTH 21 0
BBX 20 25 0 0
BITMAP
00FF80
03FFF0
07FFF0
0FFFF0
0FC030
1F0000
1F0000
1F0000
1F0000
FFFF00
FFFF00
3FFF00
1F0000
1F0000
FFFF00
FFFF00
3FF000
1F0000
1F0000
1F0000
0F8010
0FFFF0
07FFF0
03FFF0
00FFC0
ENDCHAR
STARTCHAR 2113
ENCODING 8467
SWIDTH 450 0
DWIDTH 15 0
BBX 13 25 1 0
BITMAP
0100
1FE0
3FF0
3FF0
3EF8
3C78
3C78
3CF8
3CF0
3DF0
3DE0
3FE0
3FC0
3F80
3F00
7E00
FC00
FC00
BC00
3C00
3E00
3F80
3FF0
1FF0
0FF0
ENDCHAR
STARTCHAR 2116
ENCODING 8470
SWIDTH 1110 0
DWIDTH 37 0
BBX 34 24 2 0
BITMAP
3E003FFF00
7F807FFF80
FF80FFFF80
FFC0FE0FC0
F7C1F003C0
F3C1F3C3C0
F3E1F3C3C0
F3E1F1C3C0
F1E1F1FF80
F1F1F1FF80
F1F1F0FF00
F1F1F00000
F0F1F00000
F0F9F00000
F0F9F00000
F079F00000
F07DF00000
F07DF00000
F03DF00000
F03FF00000
F03FF00000
F03FF00000
F01FE00000
F00FC00000
ENDCHAR
STARTCHAR 2122
ENCODING 8482
SWIDTH 720 0
DWIDTH 24 0
BBX 23 12 0 12
BITMAP
FFCE3C
FFCE3C
FFDF3C
0E1F3C
0E1F7C
0E1F7C
0E1FEE
0E1FEE
0E1DEE
0E1DEE
0E1DCE
0E3DCE
ENDCHAR
STARTCHAR 212E
ENCODING 8494
SWIDTH 690 0
DWIDTH 23 0
BBX 20 18 2 0
BITMAP
03F800
0C0600
300180
6000C0
6000C0
E000E0
E000E0
E000E0
FFFFF0
E00000
E00000
E00000
E00000
600000
6000C0
300180
0C0600
03F800
ENDCHAR
STARTCHAR 2202
ENCODING 8706
SWIDTH 630 0
DWIDTH 21 0
BBX 18 25 1 0
BITMAP
03F000
0FFC00
3FFE00
3FFF00
3E3F80
200F80
000780
0007C0
0007C0
07E7C0
1FFFC0
3FFFC0
7FFFC0
7E1FC0
7C07C0
7807C0
F807C0
F80F80
F80F80
7C1F80
7E3F00
3FFF00
3FFE00
0FFC00
07F000
ENDCHAR
STARTCHAR 2206
ENCODING 8710
SWIDTH 720 0
DWIDTH 24 0
BBX 22 24 1 0
BITMAP
003800
007800
007800
00FC00
00FC00
01FE00
01FE00
01EE00
03EF00
03C700
07C780
078780
0F83C0
0F83C0
0F01C0
1F01E0
1E01E0
3E00F0
3C00F0
7C0070
7FFFF8
7FFFF8
FFFFFC
FFFFFC
ENDCHAR
STARTCHAR 220F
ENCODING 8719
SWIDTH 660 0
DWIDTH 22 0
BBX 21 24 0 0
BITMAP
FFFFF8
FFFFF8
FFFFF8
FFFFF8
1F03E0
1F03E0
1F03E0
1F03E0
1F03E0
1F03E0
1F03E0
1F03E0
1F03E0
1F03E0
1F03E0
1F03E0
1F03E0
1F03E0
1F03E0
1F03E0
1F03E0
1F03E0
1F03E0
1F03E0
ENDCHAR
STARTCHAR 2211
ENCODING 8721
SWIDTH 570 0
DWIDTH 19 0
BBX 18 30 1 -6
BITMAP
FFFFC0
FFFFC0
FFFFC0
FFFFC0
FC0000
7E0000
7E0000
3F0000
1F8000
1F8000
0FC000
07C000
07E000
03F000
01F000
01F800
03F000
03E000
07E000
0FC000
0F8000
1F8000
3F0000
3E0000
7E0000
FC0000
FFFFC0
FFFFC0
FFFFC0
FFFFC0
ENDCHAR
STARTCHAR 2212
ENCODING 8722
SWIDTH 450 0
DWIDTH 15 0
BBX 14 4 1 10
BITMAP
FFFC
FFFC
FFFC
FFFC
ENDCHAR
STARTCHAR 221A
ENCODING 8730
SWIDTH 660 0
DWIDTH 22 0
BBX 21 27 0 0
BITMAP
0000F8
0000F8
0000F8
0001F0
0001F0
0001F0
0003E0
0003E0
0007C0
0007C0
0007C0
000F80
000F80
001F80
001F00
FC1F00
FE3E00
FE3E00
FF3E00
1F7C00
0FFC00
0FF800
07F800
07F800
03F000
03F000
01F000
ENDCHAR
STARTCHAR 221E
ENCODING 8734
SWIDTH 750 0
DWIDTH 25 0
BBX 23 11 1 6
BITMAP
1F01F0
3FC7FC
7FEFFE
F9FFBE
F0FE1E
F07C0E
F07C1E
F0FF1E
7FEFFE
7FE7FC
3F83F8
ENDCHAR
STARTCHAR 222B
ENCODING 8747
SWIDTH 450 0
DWIDTH 15 0
BBX 14 34 0 -7
BITMAP
0070
01FC
03FC
03FC
03E0
07C0
07C0
07C0
07C0
07C0
07C0
07C0
07C0
07C0
07C0
07C0
07C0
07C0
07C0
07C0
07C0
07C0
07C0
07C0
07C0
07C0
07C0
0780
0F80
0F80
FF80
FF00
FF00
3C00
ENDCHAR
STARTCHAR 2248
ENCODING 8776
SWIDTH 510 0
DWIDTH 17 0
BBX 15 10 1 7
BITMAP
1E0C
7FFE
FFFC
71F8
0000
0000
1E0C
7FFE
FFFC
71F8
ENDCHAR
STARTCHAR 2260
ENCODING 8800
SWIDTH 450 0
DWIDTH 15 0
BBX 15 16 0 3
BITMAP
0018
0030
FFFE
FFFE
FFFE
FFFE
0180
0380
0300
FFFE
FFFE
FFFE
FFFE
1800
3800
3000
ENDCHAR
STARTCHAR 2264
ENCODING 8804
SWIDTH 450 0
DWIDTH 15 0
BBX 13 19 1 2
BITMAP
0008
0078
03F8
0FF8
7FF8
FFC0
FC00
FE00
FFC0
3FF8
0FF8
01F8
0078
0008
0000
FFF8
FFF8
FFF8
FFF8
ENDCHAR
STARTCHAR 2265
ENCODING 8805
SWIDTH 450 0
DWIDTH 15 0
BBX 13 19 1 2
BITMAP
8000
F000
FE00
FF80
FFF0
1FF8
01F8
03F8
1FF8
FFE0
FF80
FC00
F000
8000
0000
FFF8
FFF8
FFF8
FFF8
ENDCHAR
STARTCHAR 25CA
ENCODING 9674
SWIDTH 510 0
DWIDTH 17 0
BBX 15 24 1 0
BITMAP
0380
03C0
07C0
0FE0
0FE0
1FF0
1EF8
3E78
7C7C
7C3C
F83E
F01E
F01E
F83E
7C3C
3C7C
3E78
1EF0
1FF0
0FE0
0FE0
07C0
03C0
0380
ENDCHAR
STARTCHAR FB00
ENCODING 64256
SWIDTH 810 0
DWIDTH 27 0
BBX 26 27 0 0
BITMAP
00000400
03F03FC0
07F87FC0
0FF87FC0
0FF8F800
0F80F800
0F00F800
0F00F800
0F00F800
3FFFFF80
FFFFFF80
FFFFFF80
FFFFFF80
0F00F800
0F00F800
0F00F800
0F00F800
0F00F800
0F00F800
0F00F800
0F00F800
0F00F800
0F00F800
0F00F800
0F00F800
0F00F800
0F00F800
ENDCHAR
STARTCHAR FB01
ENCODING 64257
SWIDTH 630 0
DWIDTH 21 0
BBX 20 27 0 0
BITMAP
003000
01FFC0
07FFC0
0FFFC0
0FC000
0F8000
1F0000
1F0000
1F0000
3FFFF0
FFFFF0
FFFFF0
FFFFF0
1F01F0
1F01F0
1F01F0
1F01F0
1F01F0
1F01F0
1F01F0
1F01F0
1F01F0
1F01F0
1F01F0
1F01F0
1F01F0
1F01F0
ENDCHAR
STARTCHAR FB02
ENCODING 64258
SWIDTH 720 0
DWIDTH 24 0
BBX 24 27 0 0
BITMAP
003C00
03FFF0
07FFF0
0FFFF0
0F81F0
1F01F0
1F01F0
1F01F0
1F01F0
3FF1F0
FFF1F0
FFF1F0
FFF1F0
1F01F0
1F01F0
1F01F0
1F01F0
1F01F0
1F01F0
1F01F0
1F01F0
1F01F0
1F01F0
1F01FC
1F00FF
1F00FF
1F007F
ENDCHAR
STARTCHAR FB03
ENCODING 64259
SWIDTH 1020 0
DWIDTH 34 0
BBX 32 27 0 0
BITMAP
00000100
03F01FFE
07F83FFE
0FF87FFE
0FF8FC00
0F80F800
0F00F800
0F00F800
0F00F800
3FFFFFFF
FFFFFFFF
FFFFFFFF
FFFFFFFF
0F00F01F
0F00F01F
0F00F01F
0F00F01F
0F00F01F
0F00F01F
0F00F01F
0F00F01F
0F00F01F
0F00F01F
0F00F01F
0F00F01F
0F00F01F
0F00F01F
ENDCHAR
STARTCHAR FB04
ENCODING 64260
SWIDTH 1110 0
DWIDTH 37 0
BBX 36 26 0 0
BITMAP
03F03FFF00
07F87FFF00
0FF87FFF00
0FF8FC0F00
0F80F80F00
0F00F80F00
0F00F80F00
0F00F80F00
3FFFFF8F00
FFFFFF8F00
FFFFFF8F00
FFFFFF8F00
0F00F80F00
0F00F80F00
0F00F80F00
0F00F80F00
0F00F80F00
0F00F80F00
0F00F80F00
0F00F80F00
0F00F80F80
0F00F80F80
0F00F80FC0
0F00F80FF0
0F00F807F0
0F00F803F0
ENDCHAR
STARTCHAR FB06
ENCODING 64262
SWIDTH 900 0
DWIDTH 30 0
BBX 28 23 1 0
BITMAP
00000F00
00000F00
00000F00
00000F00
00001F00
3FFFFFF0
7FFFFFF0
FFFFFFF0
FFFFFFF0
F8001F00
F8001F00
F8001F00
FFF81F00
FFFC1F00
7FFE1F00
3FFE1F00
003E1F00
003E1F00
003E1F00
7FFE0FC0
7FFE0FF0
7FFC0FF0
3FF807F0
ENDCHAR
ENDFONT
